<svg width="253" height="46" viewBox="0 0 253 46" fill="none" xmlns="http://www.w3.org/2000/svg">
<path d="M9.64 7.74C10.58 7.04 11.06 6.1 11.06 4.88C11.06 3.78 10.66 2.86 9.86 2.12C9.08 1.38 8.1 0.999999 6.96 0.999999H1.4V15H7.4C8.58 15 9.56 14.62 10.38 13.86C11.2 13.1 11.6 12.14 11.6 11C11.6 9.54 10.86 8.38 9.64 7.74ZM6.96 3.16C7.98 3.16 8.76 3.96 8.76 5C8.76 6.04 7.98 6.84 6.96 6.84H3.7V3.16H6.96ZM3.7 12.84V8.92H7.4C8.46 8.92 9.3 9.78 9.3 10.88C9.3 11.98 8.46 12.84 7.4 12.84H3.7ZM16.627 5H14.467V15H16.627V9.96C16.627 8.94 16.927 8.2 17.547 7.76C18.167 7.3 18.887 7.1 19.707 7.16V4.82C18.207 4.82 17.167 5.44 16.627 6.68V5ZM24.343 3.1C24.903 2.54 24.903 1.7 24.363 1.16C23.823 0.599999 22.943 0.599999 22.403 1.16C21.863 1.7 21.863 2.54 22.403 3.1C22.963 3.64 23.803 3.64 24.343 3.1ZM24.463 15V5H22.303V15H24.463ZM33.2309 4.74C31.8109 4.74 30.7909 5.26 30.1309 6.28V5H27.9709V15H30.1309V9.64C30.1309 7.7 31.1509 6.76 32.6709 6.76C34.0509 6.76 34.9109 7.58 34.9109 9.08V15H37.0709V8.86C37.0709 6.3 35.5309 4.74 33.2309 4.74ZM48.3567 6.48C47.5367 5.32 46.3767 4.74 44.8767 4.74C43.4567 4.74 42.2767 5.24 41.2967 6.26C40.3167 7.26 39.8367 8.48 39.8367 9.9C39.8367 11.32 40.3167 12.54 41.2967 13.56C42.2767 14.56 43.4567 15.06 44.8767 15.06C46.3767 15.06 47.5367 14.48 48.3567 13.32V14.54C48.3567 16.28 47.2367 17.3 45.3767 17.3C43.9567 17.3 42.9767 16.78 42.4567 15.76L40.5967 16.84C41.4567 18.46 43.0367 19.26 45.3367 19.26C46.7567 19.26 47.9767 18.86 48.9767 18.04C49.9767 17.22 50.4767 16.06 50.4767 14.54V5H48.3567V6.48ZM42.8967 12.14C42.2967 11.54 41.9967 10.8 41.9967 9.9C41.9967 9 42.2967 8.26 42.8967 7.66C43.5167 7.06 44.2767 6.76 45.1767 6.76C46.0767 6.76 46.8367 7.06 47.4367 7.66C48.0567 8.26 48.3567 9 48.3567 9.9C48.3567 10.8 48.0567 11.54 47.4367 12.14C46.8367 12.74 46.0767 13.04 45.1767 13.04C44.2767 13.04 43.5167 12.74 42.8967 12.14ZM59.0344 0.999999V3.2H62.9944V15H65.2944V3.2H69.2344V0.999999H59.0344ZM79.6583 10.92C79.7183 10.54 79.7383 10.24 79.7383 10.02C79.7383 8.56 79.2583 7.3 78.3183 6.28C77.3783 5.26 76.1783 4.74 74.7183 4.74C73.1783 4.74 71.8983 5.24 70.9183 6.26C69.9383 7.26 69.4383 8.5 69.4383 10C69.4383 11.52 69.9383 12.78 70.9383 13.78C71.9383 14.76 73.2583 15.26 74.8783 15.26C76.8183 15.26 78.2783 14.54 79.2583 13.08L77.4783 12.04C76.8983 12.86 76.0383 13.28 74.8983 13.28C73.2383 13.28 72.0183 12.44 71.6983 10.92H79.6583ZM71.6783 9.16C71.9783 7.64 73.0983 6.7 74.6983 6.7C76.1183 6.7 77.2583 7.54 77.5583 9.16H71.6783ZM87.3003 15.26C89.2403 15.26 90.9403 14.26 91.8003 12.66L89.9403 11.6C89.4603 12.54 88.4603 13.14 87.2803 13.14C86.4003 13.14 85.6603 12.84 85.0603 12.24C84.4803 11.64 84.1803 10.9 84.1803 10C84.1803 9.1 84.4803 8.36 85.0603 7.76C85.6603 7.16 86.4003 6.86 87.2803 6.86C88.4803 6.86 89.4403 7.44 89.9003 8.4L91.7603 7.32C90.9603 5.74 89.2403 4.74 87.3003 4.74C85.8003 4.74 84.5403 5.24 83.5203 6.26C82.5203 7.26 82.0203 8.5 82.0203 10C82.0203 11.48 82.5203 12.72 83.5203 13.74C84.5403 14.76 85.8003 15.26 87.3003 15.26ZM99.6216 4.74C98.2016 4.74 97.1816 5.26 96.5216 6.28V0.999999H94.3616V15H96.5216V9.64C96.5216 7.7 97.5416 6.76 99.0616 6.76C100.442 6.76 101.302 7.58 101.302 9.08V15H103.462V8.86C103.462 6.3 101.922 4.74 99.6216 4.74ZM112.047 4.74C110.627 4.74 109.607 5.26 108.947 6.28V5H106.787V15H108.947V9.64C108.947 7.7 109.967 6.76 111.487 6.76C112.867 6.76 113.727 7.58 113.727 9.08V15H115.887V8.86C115.887 6.3 114.347 4.74 112.047 4.74ZM123.933 15.26C125.413 15.26 126.653 14.76 127.673 13.74C128.693 12.72 129.213 11.48 129.213 10C129.213 8.52 128.693 7.28 127.673 6.26C126.653 5.24 125.413 4.74 123.933 4.74C122.473 4.74 121.213 5.24 120.193 6.26C119.173 7.28 118.653 8.52 118.653 10C118.653 11.48 119.173 12.72 120.193 13.74C121.213 14.76 122.473 15.26 123.933 15.26ZM121.713 12.26C121.113 11.66 120.813 10.9 120.813 10C120.813 9.1 121.113 8.34 121.713 7.74C122.313 7.14 123.053 6.84 123.933 6.84C124.813 6.84 125.553 7.14 126.153 7.74C126.753 8.34 127.053 9.1 127.053 10C127.053 10.9 126.753 11.66 126.153 12.26C125.553 12.86 124.813 13.16 123.933 13.16C123.053 13.16 122.313 12.86 121.713 12.26ZM134.326 15V0.4H132.166V15H134.326ZM142.554 15.26C144.034 15.26 145.274 14.76 146.294 13.74C147.314 12.72 147.834 11.48 147.834 10C147.834 8.52 147.314 7.28 146.294 6.26C145.274 5.24 144.034 4.74 142.554 4.74C141.094 4.74 139.834 5.24 138.814 6.26C137.794 7.28 137.274 8.52 137.274 10C137.274 11.48 137.794 12.72 138.814 13.74C139.834 14.76 141.094 15.26 142.554 15.26ZM140.334 12.26C139.734 11.66 139.434 10.9 139.434 10C139.434 9.1 139.734 8.34 140.334 7.74C140.934 7.14 141.674 6.84 142.554 6.84C143.434 6.84 144.174 7.14 144.774 7.74C145.374 8.34 145.674 9.1 145.674 10C145.674 10.9 145.374 11.66 144.774 12.26C144.174 12.86 143.434 13.16 142.554 13.16C141.674 13.16 140.934 12.86 140.334 12.26ZM158.747 6.48C157.927 5.32 156.767 4.74 155.267 4.74C153.847 4.74 152.667 5.24 151.687 6.26C150.707 7.26 150.227 8.48 150.227 9.9C150.227 11.32 150.707 12.54 151.687 13.56C152.667 14.56 153.847 15.06 155.267 15.06C156.767 15.06 157.927 14.48 158.747 13.32V14.54C158.747 16.28 157.627 17.3 155.767 17.3C154.347 17.3 153.367 16.78 152.847 15.76L150.987 16.84C151.847 18.46 153.427 19.26 155.727 19.26C157.147 19.26 158.367 18.86 159.367 18.04C160.367 17.22 160.867 16.06 160.867 14.54V5H158.747V6.48ZM153.287 12.14C152.687 11.54 152.387 10.8 152.387 9.9C152.387 9 152.687 8.26 153.287 7.66C153.907 7.06 154.667 6.76 155.567 6.76C156.467 6.76 157.227 7.06 157.827 7.66C158.447 8.26 158.747 9 158.747 9.9C158.747 10.8 158.447 11.54 157.827 12.14C157.227 12.74 156.467 13.04 155.567 13.04C154.667 13.04 153.907 12.74 153.287 12.14ZM168.565 12.26L165.585 5H163.225L167.465 14.82L167.365 15.02C166.825 16.4 166.065 17.06 164.705 16.98V19C167.005 19.14 168.625 17.9 169.585 15.32L173.425 5H171.125L168.565 12.26ZM180.816 0.999999V3.2H184.776V15H187.076V3.2H191.016V0.999999H180.816ZM196.5 15.26C197.98 15.26 199.22 14.76 200.24 13.74C201.26 12.72 201.78 11.48 201.78 10C201.78 8.52 201.26 7.28 200.24 6.26C199.22 5.24 197.98 4.74 196.5 4.74C195.04 4.74 193.78 5.24 192.76 6.26C191.74 7.28 191.22 8.52 191.22 10C191.22 11.48 191.74 12.72 192.76 13.74C193.78 14.76 195.04 15.26 196.5 15.26ZM194.28 12.26C193.68 11.66 193.38 10.9 193.38 10C193.38 9.1 193.68 8.34 194.28 7.74C194.88 7.14 195.62 6.84 196.5 6.84C197.38 6.84 198.12 7.14 198.72 7.74C199.32 8.34 199.62 9.1 199.62 10C199.62 10.9 199.32 11.66 198.72 12.26C198.12 12.86 197.38 13.16 196.5 13.16C195.62 13.16 194.88 12.86 194.28 12.26ZM219.013 0.999999L215.613 7.2L212.193 0.999999H209.573L214.453 9.44V15H216.753V9.44L221.633 0.999999H219.013ZM226.726 15.26C228.206 15.26 229.446 14.76 230.466 13.74C231.486 12.72 232.006 11.48 232.006 10C232.006 8.52 231.486 7.28 230.466 6.26C229.446 5.24 228.206 4.74 226.726 4.74C225.266 4.74 224.006 5.24 222.986 6.26C221.966 7.28 221.446 8.52 221.446 10C221.446 11.48 221.966 12.72 222.986 13.74C224.006 14.76 225.266 15.26 226.726 15.26ZM224.506 12.26C223.906 11.66 223.606 10.9 223.606 10C223.606 9.1 223.906 8.34 224.506 7.74C225.106 7.14 225.846 6.84 226.726 6.84C227.606 6.84 228.346 7.14 228.946 7.74C229.546 8.34 229.846 9.1 229.846 10C229.846 10.9 229.546 11.66 228.946 12.26C228.346 12.86 227.606 13.16 226.726 13.16C225.846 13.16 225.106 12.86 224.506 12.26ZM241.699 10.36C241.699 12.3 240.679 13.24 239.159 13.24C237.779 13.24 236.919 12.42 236.919 10.92V5H234.759V11.14C234.759 13.7 236.299 15.26 238.599 15.26C240.019 15.26 241.039 14.74 241.699 13.72V15H243.859V5H241.699V10.36ZM249.545 5H247.385V15H249.545V9.96C249.545 8.94 249.845 8.2 250.465 7.76C251.085 7.3 251.805 7.1 252.625 7.16V4.82C251.125 4.82 250.085 5.44 249.545 6.68V5ZM8.02 45.26C9.3 45.26 10.48 44.96 11.54 44.36C12.62 43.74 13.46 42.92 14.04 41.9L12.04 40.76C11.32 42.14 9.78 43.02 8.02 43.02C6.52 43.02 5.32 42.54 4.38 41.6C3.46 40.66 3 39.46 3 38C3 36.54 3.46 35.34 4.38 34.4C5.32 33.46 6.52 32.98 8.02 32.98C9.78 32.98 11.3 33.86 12.04 35.24L14.04 34.08C12.84 32.02 10.56 30.74 8.02 30.74C5.92 30.74 4.16 31.44 2.78 32.84C1.4 34.22 0.7 35.94 0.7 38C0.7 40.06 1.4 41.78 2.78 43.18C4.16 44.56 5.92 45.26 8.02 45.26ZM21.5113 45.26C22.9913 45.26 24.2313 44.76 25.2513 43.74C26.2713 42.72 26.7913 41.48 26.7913 40C26.7913 38.52 26.2713 37.28 25.2513 36.26C24.2313 35.24 22.9913 34.74 21.5113 34.74C20.0513 34.74 18.7913 35.24 17.7713 36.26C16.7513 37.28 16.2313 38.52 16.2313 40C16.2313 41.48 16.7513 42.72 17.7713 43.74C18.7913 44.76 20.0513 45.26 21.5113 45.26ZM19.2913 42.26C18.6913 41.66 18.3913 40.9 18.3913 40C18.3913 39.1 18.6913 38.34 19.2913 37.74C19.8913 37.14 20.6313 36.84 21.5113 36.84C22.3913 36.84 23.1313 37.14 23.7313 37.74C24.3313 38.34 24.6313 39.1 24.6313 40C24.6313 40.9 24.3313 41.66 23.7313 42.26C23.1313 42.86 22.3913 43.16 21.5113 43.16C20.6313 43.16 19.8913 42.86 19.2913 42.26ZM40.6644 34.74C39.2844 34.74 38.2644 35.26 37.6044 36.32C36.9844 35.26 36.0444 34.74 34.7644 34.74C33.5044 34.74 32.5444 35.22 31.9044 36.2V35H29.7444V45H31.9044V39.4C31.9044 37.66 32.8244 36.76 34.1244 36.76C35.3244 36.76 36.0044 37.56 36.0044 38.94V45H38.1644V39.4C38.1644 37.64 39.0044 36.76 40.3444 36.76C41.5444 36.76 42.2844 37.56 42.2844 38.94V45H44.4444V38.8C44.4444 36.32 42.9244 34.74 40.6644 34.74ZM52.9961 30.74C50.0361 30.56 48.4761 32.06 48.4761 34.8V35H46.9561V37.08H48.4761V45H50.6361V37.08H52.9961V35H50.6361V34.8C50.6361 33.34 51.4161 32.68 52.9961 32.82V30.74ZM57.42 35H55.26V45H57.42V39.96C57.42 38.94 57.72 38.2 58.34 37.76C58.96 37.3 59.68 37.1 60.5 37.16V34.82C59 34.82 57.96 35.44 57.42 36.68V35ZM67.3472 45.26C68.8272 45.26 70.0672 44.76 71.0872 43.74C72.1072 42.72 72.6272 41.48 72.6272 40C72.6272 38.52 72.1072 37.28 71.0872 36.26C70.0672 35.24 68.8272 34.74 67.3472 34.74C65.8872 34.74 64.6272 35.24 63.6072 36.26C62.5872 37.28 62.0672 38.52 62.0672 40C62.0672 41.48 62.5872 42.72 63.6072 43.74C64.6272 44.76 65.8872 45.26 67.3472 45.26ZM65.1272 42.26C64.5272 41.66 64.2272 40.9 64.2272 40C64.2272 39.1 64.5272 38.34 65.1272 37.74C65.7272 37.14 66.4672 36.84 67.3472 36.84C68.2272 36.84 68.9672 37.14 69.5672 37.74C70.1672 38.34 70.4672 39.1 70.4672 40C70.4672 40.9 70.1672 41.66 69.5672 42.26C68.9672 42.86 68.2272 43.16 67.3472 43.16C66.4672 43.16 65.7272 42.86 65.1272 42.26ZM80.965 35H78.485V32.2L76.325 32.84V35H74.485V37.08H76.325V41.88C76.325 44.5 77.665 45.4 80.965 45V43.06C79.325 43.14 78.485 43.16 78.485 41.88V37.08H80.965V35ZM91.4339 36.42C90.6139 35.3 89.4539 34.74 87.9339 34.74C86.5539 34.74 85.3939 35.24 84.4139 36.26C83.4339 37.28 82.9539 38.52 82.9539 40C82.9539 41.46 83.4339 42.72 84.4139 43.74C85.3939 44.76 86.5539 45.26 87.9339 45.26C89.4539 45.26 90.6139 44.7 91.4339 43.56V45H93.5939V35H91.4339V36.42ZM86.0139 42.3C85.4139 41.68 85.1139 40.92 85.1139 40C85.1139 39.08 85.4139 38.32 86.0139 37.72C86.6139 37.1 87.3739 36.8 88.2739 36.8C89.1739 36.8 89.9339 37.1 90.5339 37.72C91.1339 38.32 91.4339 39.08 91.4339 40C91.4339 40.92 91.1339 41.68 90.5339 42.3C89.9339 42.9 89.1739 43.2 88.2739 43.2C87.3739 43.2 86.6139 42.9 86.0139 42.3ZM102.772 34.74C101.252 34.74 100.092 35.3 99.2716 36.42V31H97.1116V45H99.2716V43.56C100.092 44.7 101.252 45.26 102.772 45.26C104.152 45.26 105.312 44.76 106.292 43.74C107.272 42.72 107.752 41.46 107.752 40C107.752 38.52 107.272 37.28 106.292 36.26C105.312 35.24 104.152 34.74 102.772 34.74ZM100.172 42.3C99.5716 41.68 99.2716 40.92 99.2716 40C99.2716 39.08 99.5716 38.32 100.172 37.72C100.772 37.1 101.532 36.8 102.432 36.8C103.332 36.8 104.092 37.1 104.692 37.72C105.292 38.32 105.592 39.08 105.592 40C105.592 40.92 105.292 41.68 104.692 42.3C104.092 42.9 103.332 43.2 102.432 43.2C101.532 43.2 100.772 42.9 100.172 42.3ZM112.869 45V30.4H110.709V45H112.869ZM126.037 40.92C126.097 40.54 126.117 40.24 126.117 40.02C126.117 38.56 125.637 37.3 124.697 36.28C123.757 35.26 122.557 34.74 121.097 34.74C119.557 34.74 118.277 35.24 117.297 36.26C116.317 37.26 115.817 38.5 115.817 40C115.817 41.52 116.317 42.78 117.317 43.78C118.317 44.76 119.637 45.26 121.257 45.26C123.197 45.26 124.657 44.54 125.637 43.08L123.857 42.04C123.277 42.86 122.417 43.28 121.277 43.28C119.617 43.28 118.397 42.44 118.077 40.92H126.037ZM118.057 39.16C118.357 37.64 119.477 36.7 121.077 36.7C122.497 36.7 123.637 37.54 123.937 39.16H118.057ZM143.458 36.74H137.458V31H135.158V45H137.458V38.94H143.458V45H145.758V31H143.458V36.74ZM154.136 45.26C155.616 45.26 156.856 44.76 157.876 43.74C158.896 42.72 159.416 41.48 159.416 40C159.416 38.52 158.896 37.28 157.876 36.26C156.856 35.24 155.616 34.74 154.136 34.74C152.676 34.74 151.416 35.24 150.396 36.26C149.376 37.28 148.856 38.52 148.856 40C148.856 41.48 149.376 42.72 150.396 43.74C151.416 44.76 152.676 45.26 154.136 45.26ZM151.916 42.26C151.316 41.66 151.016 40.9 151.016 40C151.016 39.1 151.316 38.34 151.916 37.74C152.516 37.14 153.256 36.84 154.136 36.84C155.016 36.84 155.756 37.14 156.356 37.74C156.956 38.34 157.256 39.1 157.256 40C157.256 40.9 156.956 41.66 156.356 42.26C155.756 42.86 155.016 43.16 154.136 43.16C153.256 43.16 152.516 42.86 151.916 42.26ZM173.289 34.74C171.909 34.74 170.889 35.26 170.229 36.32C169.609 35.26 168.669 34.74 167.389 34.74C166.129 34.74 165.169 35.22 164.529 36.2V35H162.369V45H164.529V39.4C164.529 37.66 165.449 36.76 166.749 36.76C167.949 36.76 168.629 37.56 168.629 38.94V45H170.789V39.4C170.789 37.64 171.629 36.76 172.969 36.76C174.169 36.76 174.909 37.56 174.909 38.94V45H177.069V38.8C177.069 36.32 175.549 34.74 173.289 34.74ZM190.041 40.92C190.101 40.54 190.121 40.24 190.121 40.02C190.121 38.56 189.641 37.3 188.701 36.28C187.761 35.26 186.561 34.74 185.101 34.74C183.561 34.74 182.281 35.24 181.301 36.26C180.321 37.26 179.821 38.5 179.821 40C179.821 41.52 180.321 42.78 181.321 43.78C182.321 44.76 183.641 45.26 185.261 45.26C187.201 45.26 188.661 44.54 189.641 43.08L187.861 42.04C187.281 42.86 186.421 43.28 185.281 43.28C183.621 43.28 182.401 42.44 182.081 40.92H190.041ZM182.061 39.16C182.361 37.64 183.481 36.7 185.081 36.7C186.501 36.7 187.641 37.54 187.941 39.16H182.061Z" fill="#1F3F68"/>
</svg>
