<svg width="283" height="46" viewBox="0 0 283 46" fill="none" xmlns="http://www.w3.org/2000/svg">
<path d="M9.64 7.74C10.58 7.04 11.06 6.1 11.06 4.88C11.06 3.78 10.66 2.86 9.86 2.12C9.08 1.38 8.1 0.999999 6.96 0.999999H1.4V15H7.4C8.58 15 9.56 14.62 10.38 13.86C11.2 13.1 11.6 12.14 11.6 11C11.6 9.54 10.86 8.38 9.64 7.74ZM6.96 3.16C7.98 3.16 8.76 3.96 8.76 5C8.76 6.04 7.98 6.84 6.96 6.84H3.7V3.16H6.96ZM3.7 12.84V8.92H7.4C8.46 8.92 9.3 9.78 9.3 10.88C9.3 11.98 8.46 12.84 7.4 12.84H3.7ZM21.4023 10.36C21.4023 12.3 20.3823 13.24 18.8623 13.24C17.4823 13.24 16.6223 12.42 16.6223 10.92V5H14.4623V11.14C14.4623 13.7 16.0023 15.26 18.3023 15.26C19.7223 15.26 20.7423 14.74 21.4023 13.72V15H23.5623V5H21.4023V10.36ZM29.1281 3.1C29.6881 2.54 29.6881 1.7 29.1481 1.16C28.6081 0.599999 27.7281 0.599999 27.1881 1.16C26.6481 1.7 26.6481 2.54 27.1881 3.1C27.7481 3.64 28.5881 3.64 29.1281 3.1ZM29.2481 15V5H27.0881V15H29.2481ZM34.9161 15V0.4H32.7561V15H34.9161ZM46.3441 6.42C45.5241 5.3 44.3641 4.74 42.8441 4.74C41.4641 4.74 40.3041 5.24 39.3241 6.26C38.3441 7.28 37.8641 8.52 37.8641 10C37.8641 11.46 38.3441 12.72 39.3241 13.74C40.3041 14.76 41.4641 15.26 42.8441 15.26C44.3641 15.26 45.5241 14.7 46.3441 13.56V15H48.5041V0.999999H46.3441V6.42ZM40.9241 12.3C40.3241 11.68 40.0241 10.92 40.0241 10C40.0241 9.08 40.3241 8.32 40.9241 7.72C41.5241 7.1 42.2841 6.8 43.1841 6.8C44.0841 6.8 44.8441 7.1 45.4441 7.72C46.0441 8.32 46.3441 9.08 46.3441 10C46.3441 10.92 46.0441 11.68 45.4441 12.3C44.8441 12.9 44.0841 13.2 43.1841 13.2C42.2841 13.2 41.5241 12.9 40.9241 12.3ZM66.3017 0.999999L62.9017 7.2L59.4817 0.999999H56.8617L61.7417 9.44V15H64.0417V9.44L68.9217 0.999999H66.3017ZM74.0152 15.26C75.4952 15.26 76.7352 14.76 77.7552 13.74C78.7752 12.72 79.2952 11.48 79.2952 10C79.2952 8.52 78.7752 7.28 77.7552 6.26C76.7352 5.24 75.4952 4.74 74.0152 4.74C72.5552 4.74 71.2952 5.24 70.2752 6.26C69.2552 7.28 68.7352 8.52 68.7352 10C68.7352 11.48 69.2552 12.72 70.2752 13.74C71.2952 14.76 72.5552 15.26 74.0152 15.26ZM71.7952 12.26C71.1952 11.66 70.8952 10.9 70.8952 10C70.8952 9.1 71.1952 8.34 71.7952 7.74C72.3952 7.14 73.1352 6.84 74.0152 6.84C74.8952 6.84 75.6352 7.14 76.2352 7.74C76.8352 8.34 77.1352 9.1 77.1352 10C77.1352 10.9 76.8352 11.66 76.2352 12.26C75.6352 12.86 74.8952 13.16 74.0152 13.16C73.1352 13.16 72.3952 12.86 71.7952 12.26ZM88.9883 10.36C88.9883 12.3 87.9683 13.24 86.4483 13.24C85.0683 13.24 84.2083 12.42 84.2083 10.92V5H82.0483V11.14C82.0483 13.7 83.5883 15.26 85.8883 15.26C87.3083 15.26 88.3283 14.74 88.9883 13.72V15H91.1483V5H88.9883V10.36ZM96.8341 5H94.6741V15H96.8341V9.96C96.8341 8.94 97.1341 8.2 97.7541 7.76C98.3741 7.3 99.0941 7.1 99.9141 7.16V4.82C98.4141 4.82 97.3741 5.44 96.8341 6.68V5ZM108.65 0.999999V15H114.15C116.07 15 117.67 14.32 118.93 12.98C120.21 11.62 120.85 9.96 120.85 8C120.85 6.02 120.21 4.36 118.93 3.02C117.67 1.68 116.07 0.999999 114.15 0.999999H108.65ZM110.95 12.8V3.2H114.15C115.47 3.2 116.55 3.66 117.37 4.56C118.21 5.46 118.63 6.6 118.63 8C118.63 9.38 118.21 10.54 117.37 11.44C116.55 12.34 115.47 12.8 114.15 12.8H110.95ZM125.847 3.1C126.407 2.54 126.407 1.7 125.867 1.16C125.327 0.599999 124.447 0.599999 123.907 1.16C123.367 1.7 123.367 2.54 123.907 3.1C124.467 3.64 125.307 3.64 125.847 3.1ZM125.967 15V5H123.807V15H125.967ZM137.435 6.48C136.615 5.32 135.455 4.74 133.955 4.74C132.535 4.74 131.355 5.24 130.375 6.26C129.395 7.26 128.915 8.48 128.915 9.9C128.915 11.32 129.395 12.54 130.375 13.56C131.355 14.56 132.535 15.06 133.955 15.06C135.455 15.06 136.615 14.48 137.435 13.32V14.54C137.435 16.28 136.315 17.3 134.455 17.3C133.035 17.3 132.055 16.78 131.535 15.76L129.675 16.84C130.535 18.46 132.115 19.26 134.415 19.26C135.835 19.26 137.055 18.86 138.055 18.04C139.055 17.22 139.555 16.06 139.555 14.54V5H137.435V6.48ZM131.975 12.14C131.375 11.54 131.075 10.8 131.075 9.9C131.075 9 131.375 8.26 131.975 7.66C132.595 7.06 133.355 6.76 134.255 6.76C135.155 6.76 135.915 7.06 136.515 7.66C137.135 8.26 137.435 9 137.435 9.9C137.435 10.8 137.135 11.54 136.515 12.14C135.915 12.74 135.155 13.04 134.255 13.04C133.355 13.04 132.595 12.74 131.975 12.14ZM145.113 3.1C145.673 2.54 145.673 1.7 145.133 1.16C144.593 0.599999 143.713 0.599999 143.173 1.16C142.633 1.7 142.633 2.54 143.173 3.1C143.733 3.64 144.573 3.64 145.113 3.1ZM145.233 15V5H143.073V15H145.233ZM154.32 5H151.84V2.2L149.68 2.84V5H147.84V7.08H149.68V11.88C149.68 14.5 151.02 15.4 154.32 15V13.06C152.68 13.14 151.84 13.16 151.84 11.88V7.08H154.32V5ZM164.789 6.42C163.969 5.3 162.809 4.74 161.289 4.74C159.909 4.74 158.749 5.24 157.769 6.26C156.789 7.28 156.309 8.52 156.309 10C156.309 11.46 156.789 12.72 157.769 13.74C158.749 14.76 159.909 15.26 161.289 15.26C162.809 15.26 163.969 14.7 164.789 13.56V15H166.949V5H164.789V6.42ZM159.369 12.3C158.769 11.68 158.469 10.92 158.469 10C158.469 9.08 158.769 8.32 159.369 7.72C159.969 7.1 160.729 6.8 161.629 6.8C162.529 6.8 163.289 7.1 163.889 7.72C164.489 8.32 164.789 9.08 164.789 10C164.789 10.92 164.489 11.68 163.889 12.3C163.289 12.9 162.529 13.2 161.629 13.2C160.729 13.2 159.969 12.9 159.369 12.3ZM172.627 15V0.4H170.467V15H172.627ZM182.275 0.999999V15H184.575V10.2H187.435C188.755 10.2 189.855 9.76 190.735 8.88C191.635 7.98 192.075 6.9 192.075 5.6C192.075 4.3 191.635 3.2 190.735 2.32C189.855 1.44 188.755 0.999999 187.435 0.999999H182.275ZM184.575 8.04V3.16H187.435C188.795 3.16 189.775 4.18 189.775 5.6C189.775 7.02 188.795 8.04 187.435 8.04H184.575ZM196.897 5H194.737V15H196.897V9.96C196.897 8.94 197.197 8.2 197.817 7.76C198.437 7.3 199.157 7.1 199.977 7.16V4.82C198.477 4.82 197.437 5.44 196.897 6.68V5ZM206.824 15.26C208.304 15.26 209.544 14.76 210.564 13.74C211.584 12.72 212.104 11.48 212.104 10C212.104 8.52 211.584 7.28 210.564 6.26C209.544 5.24 208.304 4.74 206.824 4.74C205.364 4.74 204.104 5.24 203.084 6.26C202.064 7.28 201.544 8.52 201.544 10C201.544 11.48 202.064 12.72 203.084 13.74C204.104 14.76 205.364 15.26 206.824 15.26ZM204.604 12.26C204.004 11.66 203.704 10.9 203.704 10C203.704 9.1 204.004 8.34 204.604 7.74C205.204 7.14 205.944 6.84 206.824 6.84C207.704 6.84 208.444 7.14 209.044 7.74C209.644 8.34 209.944 9.1 209.944 10C209.944 10.9 209.644 11.66 209.044 12.26C208.444 12.86 207.704 13.16 206.824 13.16C205.944 13.16 205.204 12.86 204.604 12.26ZM222.977 6.42C222.157 5.3 220.997 4.74 219.477 4.74C218.097 4.74 216.937 5.24 215.957 6.26C214.977 7.28 214.497 8.52 214.497 10C214.497 11.46 214.977 12.72 215.957 13.74C216.937 14.76 218.097 15.26 219.477 15.26C220.997 15.26 222.157 14.7 222.977 13.56V15H225.137V0.999999H222.977V6.42ZM217.557 12.3C216.957 11.68 216.657 10.92 216.657 10C216.657 9.08 216.957 8.32 217.557 7.72C218.157 7.1 218.917 6.8 219.817 6.8C220.717 6.8 221.477 7.1 222.077 7.72C222.677 8.32 222.977 9.08 222.977 10C222.977 10.92 222.677 11.68 222.077 12.3C221.477 12.9 220.717 13.2 219.817 13.2C218.917 13.2 218.157 12.9 217.557 12.3ZM235.395 10.36C235.395 12.3 234.375 13.24 232.855 13.24C231.475 13.24 230.615 12.42 230.615 10.92V5H228.455V11.14C228.455 13.7 229.995 15.26 232.295 15.26C233.715 15.26 234.735 14.74 235.395 13.72V15H237.555V5H235.395V10.36ZM245.8 15.26C247.74 15.26 249.44 14.26 250.3 12.66L248.44 11.6C247.96 12.54 246.96 13.14 245.78 13.14C244.9 13.14 244.16 12.84 243.56 12.24C242.98 11.64 242.68 10.9 242.68 10C242.68 9.1 242.98 8.36 243.56 7.76C244.16 7.16 244.9 6.86 245.78 6.86C246.98 6.86 247.94 7.44 248.4 8.4L250.26 7.32C249.46 5.74 247.74 4.74 245.8 4.74C244.3 4.74 243.04 5.24 242.02 6.26C241.02 7.26 240.52 8.5 240.52 10C240.52 11.48 241.02 12.72 242.02 13.74C243.04 14.76 244.3 15.26 245.8 15.26ZM258.442 5H255.962V2.2L253.802 2.84V5H251.962V7.08H253.802V11.88C253.802 14.5 255.142 15.4 258.442 15V13.06C256.802 13.14 255.962 13.16 255.962 11.88V7.08H258.442V5ZM0.3 31V33.2H4.26V45H6.56V33.2H10.5V31H0.3ZM18.3208 34.74C16.9008 34.74 15.8808 35.26 15.2208 36.28V31H13.0608V45H15.2208V39.64C15.2208 37.7 16.2408 36.76 17.7608 36.76C19.1408 36.76 20.0008 37.58 20.0008 39.08V45H22.1608V38.86C22.1608 36.3 20.6208 34.74 18.3208 34.74ZM33.4066 36.42C32.5866 35.3 31.4266 34.74 29.9066 34.74C28.5266 34.74 27.3666 35.24 26.3866 36.26C25.4066 37.28 24.9266 38.52 24.9266 40C24.9266 41.46 25.4066 42.72 26.3866 43.74C27.3666 44.76 28.5266 45.26 29.9066 45.26C31.4266 45.26 32.5866 44.7 33.4066 43.56V45H35.5666V35H33.4066V36.42ZM27.9866 42.3C27.3866 41.68 27.0866 40.92 27.0866 40C27.0866 39.08 27.3866 38.32 27.9866 37.72C28.5866 37.1 29.3466 36.8 30.2466 36.8C31.1466 36.8 31.9066 37.1 32.5066 37.72C33.1066 38.32 33.4066 39.08 33.4066 40C33.4066 40.92 33.1066 41.68 32.5066 42.3C31.9066 42.9 31.1466 43.2 30.2466 43.2C29.3466 43.2 28.5866 42.9 27.9866 42.3ZM44.6642 35H42.1842V32.2L40.0242 32.84V35H38.1842V37.08H40.0242V41.88C40.0242 44.5 41.3642 45.4 44.6642 45V43.06C43.0242 43.14 42.1842 43.16 42.1842 41.88V37.08H44.6642V35ZM58.5209 45.26C60.0009 45.26 61.2009 44.9 62.1009 44.16C63.0209 43.42 63.4809 42.4 63.4809 41.14C63.5809 39.8 62.7809 38.84 62.0409 38.26C61.8209 38.08 61.4809 37.88 61.0209 37.7C60.5809 37.52 60.2409 37.38 59.9809 37.3C59.7409 37.2 59.3609 37.08 58.8209 36.9C56.6809 36.24 56.0009 35.76 56.0009 34.72C56.0009 33.66 56.8609 32.98 58.2009 32.98C59.5809 32.98 60.5609 33.64 61.1409 34.94L63.0809 33.82C62.1809 31.9 60.4409 30.74 58.2009 30.74C56.9609 30.74 55.9009 31.1 55.0209 31.84C54.1409 32.56 53.7009 33.54 53.7009 34.78C53.7009 36.04 54.1609 36.96 55.0609 37.6C56.0009 38.22 56.6609 38.48 58.0009 38.88C59.1809 39.24 60.0209 39.58 60.4809 39.88C60.9409 40.18 61.1809 40.6 61.1809 41.18C61.1809 42.28 60.3209 43.02 58.5809 43.02C56.8209 43.02 55.6609 42.24 55.1009 40.66L53.1209 41.82C53.8609 43.96 55.8209 45.26 58.5209 45.26ZM73.082 40.36C73.082 42.3 72.062 43.24 70.542 43.24C69.162 43.24 68.302 42.42 68.302 40.92V35H66.142V41.14C66.142 43.7 67.682 45.26 69.982 45.26C71.402 45.26 72.422 44.74 73.082 43.72V45H75.242V35H73.082V40.36ZM80.8078 33.1C81.3678 32.54 81.3678 31.7 80.8278 31.16C80.2878 30.6 79.4078 30.6 78.8678 31.16C78.3278 31.7 78.3278 32.54 78.8678 33.1C79.4278 33.64 80.2678 33.64 80.8078 33.1ZM80.9278 45V35H78.7678V45H80.9278ZM90.0158 35H87.5358V32.2L85.3758 32.84V35H83.5358V37.08H85.3758V41.88C85.3758 44.5 86.7158 45.4 90.0158 45V43.06C88.3758 43.14 87.5358 43.16 87.5358 41.88V37.08H90.0158V35ZM100.485 36.42C99.6647 35.3 98.5047 34.74 96.9847 34.74C95.6047 34.74 94.4447 35.24 93.4647 36.26C92.4847 37.28 92.0047 38.52 92.0047 40C92.0047 41.46 92.4847 42.72 93.4647 43.74C94.4447 44.76 95.6047 45.26 96.9847 45.26C98.5047 45.26 99.6647 44.7 100.485 43.56V45H102.645V35H100.485V36.42ZM95.0647 42.3C94.4647 41.68 94.1647 40.92 94.1647 40C94.1647 39.08 94.4647 38.32 95.0647 37.72C95.6647 37.1 96.4247 36.8 97.3247 36.8C98.2247 36.8 98.9847 37.1 99.5847 37.72C100.185 38.32 100.485 39.08 100.485 40C100.485 40.92 100.185 41.68 99.5847 42.3C98.9847 42.9 98.2247 43.2 97.3247 43.2C96.4247 43.2 95.6647 42.9 95.0647 42.3ZM111.822 34.74C110.302 34.74 109.142 35.3 108.322 36.42V31H106.162V45H108.322V43.56C109.142 44.7 110.302 45.26 111.822 45.26C113.202 45.26 114.362 44.76 115.342 43.74C116.322 42.72 116.802 41.46 116.802 40C116.802 38.52 116.322 37.28 115.342 36.26C114.362 35.24 113.202 34.74 111.822 34.74ZM109.222 42.3C108.622 41.68 108.322 40.92 108.322 40C108.322 39.08 108.622 38.32 109.222 37.72C109.822 37.1 110.582 36.8 111.482 36.8C112.382 36.8 113.142 37.1 113.742 37.72C114.342 38.32 114.642 39.08 114.642 40C114.642 40.92 114.342 41.68 113.742 42.3C113.142 42.9 112.382 43.2 111.482 43.2C110.582 43.2 109.822 42.9 109.222 42.3ZM121.92 45V30.4H119.76V45H121.92ZM135.088 40.92C135.148 40.54 135.168 40.24 135.168 40.02C135.168 38.56 134.688 37.3 133.748 36.28C132.808 35.26 131.608 34.74 130.148 34.74C128.608 34.74 127.328 35.24 126.348 36.26C125.368 37.26 124.868 38.5 124.868 40C124.868 41.52 125.368 42.78 126.368 43.78C127.368 44.76 128.688 45.26 130.308 45.26C132.248 45.26 133.708 44.54 134.688 43.08L132.908 42.04C132.328 42.86 131.468 43.28 130.328 43.28C128.668 43.28 127.448 42.44 127.128 40.92H135.088ZM127.108 39.16C127.408 37.64 128.528 36.7 130.128 36.7C131.548 36.7 132.688 37.54 132.988 39.16H127.108ZM152.409 31H144.209V45H146.509V39.32H152.209V37.12H146.509V33.2H152.409V31ZM160.14 45.26C161.62 45.26 162.86 44.76 163.88 43.74C164.9 42.72 165.42 41.48 165.42 40C165.42 38.52 164.9 37.28 163.88 36.26C162.86 35.24 161.62 34.74 160.14 34.74C158.68 34.74 157.42 35.24 156.4 36.26C155.38 37.28 154.86 38.52 154.86 40C154.86 41.48 155.38 42.72 156.4 43.74C157.42 44.76 158.68 45.26 160.14 45.26ZM157.92 42.26C157.32 41.66 157.02 40.9 157.02 40C157.02 39.1 157.32 38.34 157.92 37.74C158.52 37.14 159.26 36.84 160.14 36.84C161.02 36.84 161.76 37.14 162.36 37.74C162.96 38.34 163.26 39.1 163.26 40C163.26 40.9 162.96 41.66 162.36 42.26C161.76 42.86 161.02 43.16 160.14 43.16C159.26 43.16 158.52 42.86 157.92 42.26ZM170.533 35H168.373V45H170.533V39.96C170.533 38.94 170.833 38.2 171.453 37.76C172.073 37.3 172.793 37.1 173.613 37.16V34.82C172.113 34.82 171.073 35.44 170.533 36.68V35ZM190.489 31L187.089 37.2L183.669 31H181.049L185.929 39.44V45H188.229V39.44L193.109 31H190.489ZM198.203 45.26C199.683 45.26 200.923 44.76 201.943 43.74C202.963 42.72 203.483 41.48 203.483 40C203.483 38.52 202.963 37.28 201.943 36.26C200.923 35.24 199.683 34.74 198.203 34.74C196.743 34.74 195.483 35.24 194.463 36.26C193.443 37.28 192.923 38.52 192.923 40C192.923 41.48 193.443 42.72 194.463 43.74C195.483 44.76 196.743 45.26 198.203 45.26ZM195.983 42.26C195.383 41.66 195.083 40.9 195.083 40C195.083 39.1 195.383 38.34 195.983 37.74C196.583 37.14 197.323 36.84 198.203 36.84C199.083 36.84 199.823 37.14 200.423 37.74C201.023 38.34 201.323 39.1 201.323 40C201.323 40.9 201.023 41.66 200.423 42.26C199.823 42.86 199.083 43.16 198.203 43.16C197.323 43.16 196.583 42.86 195.983 42.26ZM213.176 40.36C213.176 42.3 212.156 43.24 210.636 43.24C209.256 43.24 208.396 42.42 208.396 40.92V35H206.236V41.14C206.236 43.7 207.776 45.26 210.076 45.26C211.496 45.26 212.516 44.74 213.176 43.72V45H215.336V35H213.176V40.36ZM221.022 35H218.862V45H221.022V39.96C221.022 38.94 221.322 38.2 221.942 37.76C222.562 37.3 223.282 37.1 224.102 37.16V34.82C222.602 34.82 221.562 35.44 221.022 36.68V35ZM241.238 40.5L234.638 31H232.838V45H235.138V35.5L241.738 45H243.538V31H241.238V40.5ZM256.854 40.92C256.914 40.54 256.934 40.24 256.934 40.02C256.934 38.56 256.454 37.3 255.514 36.28C254.574 35.26 253.374 34.74 251.914 34.74C250.374 34.74 249.094 35.24 248.114 36.26C247.134 37.26 246.634 38.5 246.634 40C246.634 41.52 247.134 42.78 248.134 43.78C249.134 44.76 250.454 45.26 252.074 45.26C254.014 45.26 255.474 44.54 256.454 43.08L254.674 42.04C254.094 42.86 253.234 43.28 252.094 43.28C250.434 43.28 249.214 42.44 248.894 40.92H256.854ZM248.874 39.16C249.174 37.64 250.294 36.7 251.894 36.7C253.314 36.7 254.454 37.54 254.754 39.16H248.874ZM269.436 40.92C269.496 40.54 269.516 40.24 269.516 40.02C269.516 38.56 269.036 37.3 268.096 36.28C267.156 35.26 265.956 34.74 264.496 34.74C262.956 34.74 261.676 35.24 260.696 36.26C259.716 37.26 259.216 38.5 259.216 40C259.216 41.52 259.716 42.78 260.716 43.78C261.716 44.76 263.036 45.26 264.656 45.26C266.596 45.26 268.056 44.54 269.036 43.08L267.256 42.04C266.676 42.86 265.816 43.28 264.676 43.28C263.016 43.28 261.796 42.44 261.476 40.92H269.436ZM261.456 39.16C261.756 37.64 262.876 36.7 264.476 36.7C265.896 36.7 267.036 37.54 267.336 39.16H261.456ZM280.278 36.42C279.458 35.3 278.298 34.74 276.778 34.74C275.398 34.74 274.238 35.24 273.258 36.26C272.278 37.28 271.798 38.52 271.798 40C271.798 41.46 272.278 42.72 273.258 43.74C274.238 44.76 275.398 45.26 276.778 45.26C278.298 45.26 279.458 44.7 280.278 43.56V45H282.438V31H280.278V36.42ZM274.858 42.3C274.258 41.68 273.958 40.92 273.958 40C273.958 39.08 274.258 38.32 274.858 37.72C275.458 37.1 276.218 36.8 277.118 36.8C278.018 36.8 278.778 37.1 279.378 37.72C279.978 38.32 280.278 39.08 280.278 40C280.278 40.92 279.978 41.68 279.378 42.3C278.778 42.9 278.018 43.2 277.118 43.2C276.218 43.2 275.458 42.9 274.858 42.3Z" fill="#1F3F68"/>
</svg>
