<svg width="232" height="16" viewBox="0 0 232 16" fill="none" xmlns="http://www.w3.org/2000/svg">
<path opacity="0.8" d="M0.28 12H1.4V0.799999H0.28V12ZM8.3515 3.808C7.1515 3.808 6.2555 4.288 5.6635 5.248V4H4.6075V12H5.6635V7.808C5.6635 5.776 6.7195 4.832 8.2555 4.832C9.6475 4.832 10.4315 5.664 10.4315 7.088V12H11.4875V7.088C11.4875 5.088 10.2875 3.808 8.3515 3.808ZM28.1374 0.799999L24.4094 7.04L20.6814 0.799999H19.2894V12H20.4094V2.496L24.3294 9.056H24.4894L28.4094 2.496V12H29.5294V0.799999H28.1374ZM38.3583 8.192C38.3583 10.224 37.3023 11.168 35.7663 11.168C34.3743 11.168 33.5903 10.336 33.5903 8.912V4H32.5343V8.912C32.5343 10.912 33.7343 12.192 35.6703 12.192C36.8703 12.192 37.7663 11.712 38.3583 10.752V12H39.4143V4H38.3583V8.192ZM49.3281 5.568C48.5921 4.4 47.5201 3.808 46.0961 3.808C44.9601 3.808 43.9841 4.208 43.1681 5.024C42.3681 5.84 41.9681 6.832 41.9681 8C41.9681 9.168 42.3681 10.16 43.1681 10.976C43.9841 11.792 44.9601 12.192 46.0961 12.192C47.5201 12.192 48.5921 11.6 49.3281 10.432V12H50.3841V4H49.3281V5.568ZM43.9361 10.256C43.3281 9.632 43.0241 8.88 43.0241 8C43.0241 7.12 43.3281 6.368 43.9361 5.76C44.5441 5.136 45.2961 4.832 46.1761 4.832C47.0561 4.832 47.8081 5.136 48.4161 5.76C49.0241 6.368 49.3281 7.12 49.3281 8C49.3281 8.88 49.0241 9.632 48.4161 10.256C47.8081 10.864 47.0561 11.168 46.1761 11.168C45.2961 11.168 44.5441 10.864 43.9361 10.256ZM54.476 4H53.42V12H54.476V7.552C54.476 5.712 55.548 4.896 57.004 4.896V3.872C55.804 3.872 54.972 4.352 54.476 5.328V4ZM65.6469 5.568C64.9109 4.4 63.8389 3.808 62.4149 3.808C61.2789 3.808 60.3029 4.208 59.4869 5.024C58.6869 5.84 58.2869 6.832 58.2869 8C58.2869 9.168 58.6869 10.16 59.4869 10.976C60.3029 11.792 61.2789 12.192 62.4149 12.192C63.8389 12.192 64.9109 11.6 65.6469 10.432V12H66.7029V4H65.6469V5.568ZM60.2549 10.256C59.6469 9.632 59.3429 8.88 59.3429 8C59.3429 7.12 59.6469 6.368 60.2549 5.76C60.8629 5.136 61.6149 4.832 62.4949 4.832C63.3749 4.832 64.1269 5.136 64.7349 5.76C65.3429 6.368 65.6469 7.12 65.6469 8C65.6469 8.88 65.3429 9.632 64.7349 10.256C64.1269 10.864 63.3749 11.168 62.4949 11.168C61.6149 11.168 60.8629 10.864 60.2549 10.256ZM71.9148 7.84L76.0428 4H74.6028L70.7948 7.536V0.799999H69.7388V12H70.7948V8.144L74.7948 12H76.2028L71.9148 7.84ZM84.5281 5.568C83.7921 4.4 82.7201 3.808 81.2961 3.808C80.1601 3.808 79.1841 4.208 78.3681 5.024C77.5681 5.84 77.1681 6.832 77.1681 8C77.1681 9.168 77.5681 10.16 78.3681 10.976C79.1841 11.792 80.1601 12.192 81.2961 12.192C82.7201 12.192 83.7921 11.6 84.5281 10.432V12H85.5841V4H84.5281V5.568ZM79.1361 10.256C78.5281 9.632 78.2241 8.88 78.2241 8C78.2241 7.12 78.5281 6.368 79.1361 5.76C79.7441 5.136 80.4961 4.832 81.3761 4.832C82.2561 4.832 83.0081 5.136 83.6161 5.76C84.2241 6.368 84.5281 7.12 84.5281 8C84.5281 8.88 84.2241 9.632 83.6161 10.256C83.0081 10.864 82.2561 11.168 81.3761 11.168C80.4961 11.168 79.7441 10.864 79.1361 10.256ZM92.364 3.808C91.164 3.808 90.268 4.288 89.676 5.248V4H88.62V12H89.676V7.808C89.676 5.776 90.732 4.832 92.268 4.832C93.66 4.832 94.444 5.664 94.444 7.088V12H95.5V7.088C95.5 5.088 94.3 3.808 92.364 3.808ZM105.222 5.568C104.486 4.4 103.414 3.808 101.99 3.808C100.854 3.808 99.8779 4.208 99.0619 5.024C98.2619 5.84 97.8619 6.832 97.8619 8C97.8619 9.168 98.2619 10.16 99.0619 10.976C99.8779 11.792 100.854 12.192 101.99 12.192C103.414 12.192 104.486 11.6 105.222 10.432V12H106.278V4H105.222V5.568ZM99.8299 10.256C99.2219 9.632 98.9179 8.88 98.9179 8C98.9179 7.12 99.2219 6.368 99.8299 5.76C100.438 5.136 101.19 4.832 102.07 4.832C102.95 4.832 103.702 5.136 104.31 5.76C104.918 6.368 105.222 7.12 105.222 8C105.222 8.88 104.918 9.632 104.31 10.256C103.702 10.864 102.95 11.168 102.07 11.168C101.19 11.168 100.438 10.864 99.8299 10.256ZM121.474 5.712H115.394V0.799999H114.274V12H115.394V6.768H121.474V12H122.594V0.799999H121.474V5.712ZM132.493 10.992C133.309 10.176 133.725 9.184 133.725 8C133.725 6.816 133.309 5.824 132.493 5.024C131.677 4.208 130.685 3.808 129.517 3.808C128.349 3.808 127.341 4.208 126.525 5.024C125.709 5.824 125.309 6.816 125.309 8C125.309 9.184 125.709 10.176 126.525 10.992C127.341 11.792 128.349 12.192 129.517 12.192C130.685 12.192 131.677 11.792 132.493 10.992ZM127.277 10.256C126.669 9.632 126.365 8.88 126.365 8C126.365 7.12 126.669 6.368 127.277 5.76C127.885 5.136 128.637 4.832 129.517 4.832C130.397 4.832 131.149 5.136 131.757 5.76C132.365 6.368 132.669 7.12 132.669 8C132.669 8.88 132.365 9.632 131.757 10.256C131.149 10.864 130.397 11.168 129.517 11.168C128.637 11.168 127.885 10.864 127.277 10.256ZM141.924 8.192C141.924 10.224 140.868 11.168 139.332 11.168C137.94 11.168 137.156 10.336 137.156 8.912V4H136.1V8.912C136.1 10.912 137.3 12.192 139.236 12.192C140.436 12.192 141.332 11.712 141.924 10.752V12H142.98V4H141.924V8.192ZM146.846 6.096C146.846 5.28 147.614 4.832 148.526 4.832C149.502 4.832 150.142 5.2 150.446 5.952L151.326 5.44C150.862 4.432 149.822 3.808 148.526 3.808C147.742 3.808 147.086 4.032 146.558 4.464C146.046 4.896 145.79 5.44 145.79 6.096C145.79 7.824 147.47 8.192 148.814 8.528C149.726 8.768 150.462 9.168 150.462 9.888C150.462 10.768 149.662 11.168 148.622 11.168C147.55 11.168 146.734 10.656 146.43 9.824L145.534 10.352C145.966 11.44 147.086 12.192 148.622 12.192C149.47 12.192 150.174 11.984 150.702 11.552C151.246 11.12 151.518 10.576 151.518 9.888C151.518 8.16 149.838 7.792 148.494 7.456C147.582 7.216 146.846 6.816 146.846 6.096ZM155.073 2.08C155.377 1.776 155.377 1.296 155.073 0.992C154.769 0.688 154.289 0.688 153.985 0.992C153.681 1.296 153.681 1.776 153.985 2.08C154.289 2.384 154.769 2.384 155.073 2.08ZM155.057 12V4H154.001V12H155.057ZM161.842 3.808C160.642 3.808 159.746 4.288 159.154 5.248V4H158.098V12H159.154V7.808C159.154 5.776 160.21 4.832 161.746 4.832C163.138 4.832 163.922 5.664 163.922 7.088V12H164.978V7.088C164.978 5.088 163.778 3.808 161.842 3.808ZM174.7 5.568C173.964 4.4 172.892 3.808 171.468 3.808C170.332 3.808 169.356 4.208 168.54 5.024C167.74 5.84 167.34 6.832 167.34 8C167.34 9.168 167.74 10.16 168.54 10.976C169.356 11.792 170.332 12.192 171.468 12.192C172.892 12.192 173.964 11.6 174.7 10.432V11.68C174.7 13.328 173.58 14.368 171.74 14.368C170.316 14.368 169.356 13.888 168.876 12.912L167.948 13.44C168.604 14.736 169.868 15.392 171.74 15.392C172.844 15.392 173.788 15.056 174.572 14.4C175.356 13.744 175.756 12.832 175.756 11.68V4H174.7V5.568ZM169.308 10.256C168.7 9.632 168.396 8.88 168.396 8C168.396 7.12 168.7 6.368 169.308 5.76C169.916 5.136 170.668 4.832 171.548 4.832C172.428 4.832 173.18 5.136 173.788 5.76C174.396 6.368 174.7 7.12 174.7 8C174.7 8.88 174.396 9.632 173.788 10.256C173.18 10.864 172.428 11.168 171.548 11.168C170.668 11.168 169.916 10.864 169.308 10.256ZM184.872 6.88H189.832V5.824H184.872V1.856H190.232V0.799999H183.752V12H190.312V10.944H184.872V6.88ZM193.708 6.096C193.708 5.28 194.476 4.832 195.388 4.832C196.364 4.832 197.004 5.2 197.308 5.952L198.188 5.44C197.724 4.432 196.684 3.808 195.388 3.808C194.604 3.808 193.948 4.032 193.42 4.464C192.908 4.896 192.652 5.44 192.652 6.096C192.652 7.824 194.332 8.192 195.676 8.528C196.588 8.768 197.324 9.168 197.324 9.888C197.324 10.768 196.524 11.168 195.484 11.168C194.412 11.168 193.596 10.656 193.292 9.824L192.396 10.352C192.828 11.44 193.948 12.192 195.484 12.192C196.332 12.192 197.036 11.984 197.564 11.552C198.108 11.12 198.38 10.576 198.38 9.888C198.38 8.16 196.7 7.792 195.356 7.456C194.444 7.216 193.708 6.816 193.708 6.096ZM204.869 4H202.565V1.76L201.509 2.08V4H199.829V5.024H201.509V9.872C201.509 11.728 202.629 12.336 204.869 12V11.072C203.333 11.136 202.565 11.248 202.565 9.872V5.024H204.869V4ZM213.825 5.568C213.089 4.4 212.017 3.808 210.593 3.808C209.457 3.808 208.481 4.208 207.665 5.024C206.865 5.84 206.465 6.832 206.465 8C206.465 9.168 206.865 10.16 207.665 10.976C208.481 11.792 209.457 12.192 210.593 12.192C212.017 12.192 213.089 11.6 213.825 10.432V12H214.881V4H213.825V5.568ZM208.433 10.256C207.825 9.632 207.521 8.88 207.521 8C207.521 7.12 207.825 6.368 208.433 5.76C209.041 5.136 209.793 4.832 210.673 4.832C211.553 4.832 212.305 5.136 212.913 5.76C213.521 6.368 213.825 7.12 213.825 8C213.825 8.88 213.521 9.632 212.913 10.256C212.305 10.864 211.553 11.168 210.673 11.168C209.793 11.168 209.041 10.864 208.433 10.256ZM222.157 4H219.853V1.76L218.797 2.08V4H217.117V5.024H218.797V9.872C218.797 11.728 219.917 12.336 222.157 12V11.072C220.621 11.136 219.853 11.248 219.853 9.872V5.024H222.157V4ZM227.929 3.808C226.697 3.808 225.705 4.208 224.921 5.008C224.137 5.808 223.753 6.8 223.753 8C223.753 9.216 224.153 10.224 224.937 11.008C225.721 11.792 226.745 12.192 228.009 12.192C229.561 12.192 230.825 11.488 231.529 10.352L230.601 9.808C230.153 10.624 229.241 11.168 228.025 11.168C226.313 11.168 225.049 10.144 224.841 8.528H231.865C231.881 8.32 231.897 8.144 231.897 8.032C231.897 6.896 231.529 5.904 230.793 5.072C230.073 4.224 229.113 3.808 227.929 3.808ZM227.929 4.832C228.649 4.832 229.289 5.072 229.833 5.536C230.377 6 230.697 6.656 230.809 7.504H224.841C225.049 5.92 226.265 4.832 227.929 4.832Z" fill="white"/>
</svg>
