<svg width="410" height="65" viewBox="0 0 410 65" fill="none" xmlns="http://www.w3.org/2000/svg">
<path opacity="0.6" d="M2.4 0.799999H1.28V12H7.52V10.944H2.4V0.799999ZM16.0615 10.992C16.8775 10.176 17.2935 9.184 17.2935 8C17.2935 6.816 16.8775 5.824 16.0615 5.024C15.2455 4.208 14.2535 3.808 13.0855 3.808C11.9175 3.808 10.9095 4.208 10.0935 5.024C9.2775 5.824 8.8775 6.816 8.8775 8C8.8775 9.184 9.2775 10.176 10.0935 10.992C10.9095 11.792 11.9175 12.192 13.0855 12.192C14.2535 12.192 15.2455 11.792 16.0615 10.992ZM10.8455 10.256C10.2375 9.632 9.9335 8.88 9.9335 8C9.9335 7.12 10.2375 6.368 10.8455 5.76C11.4535 5.136 12.2055 4.832 13.0855 4.832C13.9655 4.832 14.7175 5.136 15.3255 5.76C15.9335 6.368 16.2375 7.12 16.2375 8C16.2375 8.88 15.9335 9.632 15.3255 10.256C14.7175 10.864 13.9655 11.168 13.0855 11.168C12.2055 11.168 11.4535 10.864 10.8455 10.256ZM20.9166 4H19.8606V12H20.9166V7.552C20.9166 5.712 21.9886 4.896 23.4446 4.896V3.872C22.2446 3.872 21.4126 4.352 20.9166 5.328V4ZM28.9035 3.808C27.6715 3.808 26.6795 4.208 25.8955 5.008C25.1115 5.808 24.7275 6.8 24.7275 8C24.7275 9.216 25.1275 10.224 25.9115 11.008C26.6955 11.792 27.7195 12.192 28.9835 12.192C30.5355 12.192 31.7995 11.488 32.5035 10.352L31.5755 9.808C31.1275 10.624 30.2155 11.168 28.9995 11.168C27.2875 11.168 26.0235 10.144 25.8155 8.528H32.8395C32.8555 8.32 32.8715 8.144 32.8715 8.032C32.8715 6.896 32.5035 5.904 31.7675 5.072C31.0475 4.224 30.0875 3.808 28.9035 3.808ZM28.9035 4.832C29.6235 4.832 30.2635 5.072 30.8075 5.536C31.3515 6 31.6715 6.656 31.7835 7.504H25.8155C26.0235 5.92 27.2395 4.832 28.9035 4.832ZM43.8793 3.808C42.7273 3.808 41.8633 4.288 41.2873 5.264C40.8233 4.288 40.0073 3.808 38.8553 3.808C37.7993 3.808 36.9833 4.256 36.4073 5.168V4H35.3513V12H36.4073V7.568C36.4073 5.712 37.4313 4.832 38.7113 4.832C39.8633 4.832 40.5833 5.6 40.5833 7.008V12H41.6393V7.568C41.6393 5.696 42.5353 4.832 43.8633 4.832C45.0313 4.832 45.8153 5.616 45.8153 7.008V12H46.8713V7.008C46.8713 5.04 45.6713 3.808 43.8793 3.808ZM55.5857 2.08C55.8897 1.776 55.8897 1.296 55.5857 0.992C55.2817 0.688 54.8017 0.688 54.4977 0.992C54.1937 1.296 54.1937 1.776 54.4977 2.08C54.8017 2.384 55.2817 2.384 55.5857 2.08ZM55.5697 12V4H54.5137V12H55.5697ZM62.8986 3.808C61.4746 3.808 60.4026 4.4 59.6666 5.568V4H58.6106V15.2H59.6666V10.432C60.4026 11.6 61.4746 12.192 62.8986 12.192C64.0346 12.192 65.0106 11.792 65.8106 10.976C66.6266 10.16 67.0266 9.168 67.0266 8C67.0266 6.832 66.6266 5.84 65.8106 5.024C65.0106 4.208 64.0346 3.808 62.8986 3.808ZM60.5786 10.256C59.9706 9.632 59.6666 8.88 59.6666 8C59.6666 7.12 59.9706 6.368 60.5786 5.76C61.1866 5.136 61.9386 4.832 62.8186 4.832C63.6986 4.832 64.4506 5.136 65.0586 5.76C65.6666 6.368 65.9706 7.12 65.9706 8C65.9706 8.88 65.6666 9.632 65.0586 10.256C64.4506 10.864 63.6986 11.168 62.8186 11.168C61.9386 11.168 61.1866 10.864 60.5786 10.256ZM70.2583 6.096C70.2583 5.28 71.0263 4.832 71.9383 4.832C72.9143 4.832 73.5543 5.2 73.8583 5.952L74.7383 5.44C74.2743 4.432 73.2343 3.808 71.9383 3.808C71.1543 3.808 70.4983 4.032 69.9703 4.464C69.4583 4.896 69.2023 5.44 69.2023 6.096C69.2023 7.824 70.8823 8.192 72.2263 8.528C73.1383 8.768 73.8743 9.168 73.8743 9.888C73.8743 10.768 73.0743 11.168 72.0343 11.168C70.9623 11.168 70.1463 10.656 69.8423 9.824L68.9463 10.352C69.3783 11.44 70.4983 12.192 72.0343 12.192C72.8823 12.192 73.5863 11.984 74.1143 11.552C74.6583 11.12 74.9303 10.576 74.9303 9.888C74.9303 8.16 73.2503 7.792 71.9063 7.456C70.9943 7.216 70.2583 6.816 70.2583 6.096ZM83.0457 8.192C83.0457 10.224 81.9897 11.168 80.4537 11.168C79.0617 11.168 78.2777 10.336 78.2777 8.912V4H77.2217V8.912C77.2217 10.912 78.4217 12.192 80.3577 12.192C81.5577 12.192 82.4537 11.712 83.0457 10.752V12H84.1017V4H83.0457V8.192ZM95.6636 3.808C94.5116 3.808 93.6476 4.288 93.0716 5.264C92.6076 4.288 91.7916 3.808 90.6396 3.808C89.5836 3.808 88.7676 4.256 88.1916 5.168V4H87.1356V12H88.1916V7.568C88.1916 5.712 89.2156 4.832 90.4956 4.832C91.6476 4.832 92.3676 5.6 92.3676 7.008V12H93.4236V7.568C93.4236 5.696 94.3196 4.832 95.6476 4.832C96.8156 4.832 97.5996 5.616 97.5996 7.008V12H98.6556V7.008C98.6556 5.04 97.4556 3.808 95.6636 3.808ZM113.178 5.568C112.442 4.4 111.37 3.808 109.946 3.808C108.81 3.808 107.834 4.208 107.018 5.024C106.218 5.84 105.818 6.832 105.818 8C105.818 9.168 106.218 10.16 107.018 10.976C107.834 11.792 108.81 12.192 109.946 12.192C111.37 12.192 112.442 11.6 113.178 10.432V12H114.234V0.799999H113.178V5.568ZM107.786 10.256C107.178 9.632 106.874 8.88 106.874 8C106.874 7.12 107.178 6.368 107.786 5.76C108.394 5.136 109.146 4.832 110.026 4.832C110.906 4.832 111.658 5.136 112.266 5.76C112.874 6.368 113.178 7.12 113.178 8C113.178 8.88 112.874 9.632 112.266 10.256C111.658 10.864 110.906 11.168 110.026 11.168C109.146 11.168 108.394 10.864 107.786 10.256ZM123.974 10.992C124.79 10.176 125.206 9.184 125.206 8C125.206 6.816 124.79 5.824 123.974 5.024C123.158 4.208 122.166 3.808 120.998 3.808C119.83 3.808 118.822 4.208 118.006 5.024C117.19 5.824 116.79 6.816 116.79 8C116.79 9.184 117.19 10.176 118.006 10.992C118.822 11.792 119.83 12.192 120.998 12.192C122.166 12.192 123.158 11.792 123.974 10.992ZM118.758 10.256C118.15 9.632 117.846 8.88 117.846 8C117.846 7.12 118.15 6.368 118.758 5.76C119.366 5.136 120.118 4.832 120.998 4.832C121.878 4.832 122.63 5.136 123.238 5.76C123.846 6.368 124.15 7.12 124.15 8C124.15 8.88 123.846 9.632 123.238 10.256C122.63 10.864 121.878 11.168 120.998 11.168C120.118 11.168 119.366 10.864 118.758 10.256ZM128.829 12V0.32H127.773V12H128.829ZM138.574 10.992C139.39 10.176 139.806 9.184 139.806 8C139.806 6.816 139.39 5.824 138.574 5.024C137.758 4.208 136.766 3.808 135.598 3.808C134.43 3.808 133.422 4.208 132.606 5.024C131.79 5.824 131.39 6.816 131.39 8C131.39 9.184 131.79 10.176 132.606 10.992C133.422 11.792 134.43 12.192 135.598 12.192C136.766 12.192 137.758 11.792 138.574 10.992ZM133.358 10.256C132.75 9.632 132.446 8.88 132.446 8C132.446 7.12 132.75 6.368 133.358 5.76C133.966 5.136 134.718 4.832 135.598 4.832C136.478 4.832 137.23 5.136 137.838 5.76C138.446 6.368 138.75 7.12 138.75 8C138.75 8.88 138.446 9.632 137.838 10.256C137.23 10.864 136.478 11.168 135.598 11.168C134.718 11.168 133.966 10.864 133.358 10.256ZM143.429 4H142.373V12H143.429V7.552C143.429 5.712 144.501 4.896 145.957 4.896V3.872C144.757 3.872 143.925 4.352 143.429 5.328V4ZM153.836 6.096C153.836 5.28 154.604 4.832 155.516 4.832C156.492 4.832 157.132 5.2 157.436 5.952L158.316 5.44C157.852 4.432 156.812 3.808 155.516 3.808C154.732 3.808 154.076 4.032 153.548 4.464C153.036 4.896 152.78 5.44 152.78 6.096C152.78 7.824 154.46 8.192 155.804 8.528C156.716 8.768 157.452 9.168 157.452 9.888C157.452 10.768 156.652 11.168 155.612 11.168C154.54 11.168 153.724 10.656 153.42 9.824L152.524 10.352C152.956 11.44 154.076 12.192 155.612 12.192C156.46 12.192 157.164 11.984 157.692 11.552C158.236 11.12 158.508 10.576 158.508 9.888C158.508 8.16 156.828 7.792 155.484 7.456C154.572 7.216 153.836 6.816 153.836 6.096ZM162.064 2.08C162.368 1.776 162.368 1.296 162.064 0.992C161.76 0.688 161.28 0.688 160.976 0.992C160.672 1.296 160.672 1.776 160.976 2.08C161.28 2.384 161.76 2.384 162.064 2.08ZM162.048 12V4H160.992V12H162.048ZM169.329 4H167.025V1.76L165.969 2.08V4H164.289V5.024H165.969V9.872C165.969 11.728 167.089 12.336 169.329 12V11.072C167.793 11.136 167.025 11.248 167.025 9.872V5.024H169.329V4ZM183.569 5.568C182.833 4.4 181.761 3.808 180.337 3.808C179.201 3.808 178.225 4.208 177.409 5.024C176.609 5.84 176.209 6.832 176.209 8C176.209 9.168 176.609 10.16 177.409 10.976C178.225 11.792 179.201 12.192 180.337 12.192C181.761 12.192 182.833 11.6 183.569 10.432V12H184.625V4H183.569V5.568ZM178.177 10.256C177.569 9.632 177.265 8.88 177.265 8C177.265 7.12 177.569 6.368 178.177 5.76C178.785 5.136 179.537 4.832 180.417 4.832C181.297 4.832 182.049 5.136 182.657 5.76C183.265 6.368 183.569 7.12 183.569 8C183.569 8.88 183.265 9.632 182.657 10.256C182.049 10.864 181.297 11.168 180.417 11.168C179.537 11.168 178.785 10.864 178.177 10.256ZM196.189 3.808C195.037 3.808 194.173 4.288 193.597 5.264C193.133 4.288 192.317 3.808 191.165 3.808C190.109 3.808 189.293 4.256 188.717 5.168V4H187.661V12H188.717V7.568C188.717 5.712 189.741 4.832 191.021 4.832C192.173 4.832 192.893 5.6 192.893 7.008V12H193.949V7.568C193.949 5.696 194.845 4.832 196.173 4.832C197.341 4.832 198.125 5.616 198.125 7.008V12H199.181V7.008C199.181 5.04 197.981 3.808 196.189 3.808ZM205.719 3.808C204.487 3.808 203.495 4.208 202.711 5.008C201.927 5.808 201.543 6.8 201.543 8C201.543 9.216 201.943 10.224 202.727 11.008C203.511 11.792 204.535 12.192 205.799 12.192C207.351 12.192 208.615 11.488 209.319 10.352L208.391 9.808C207.943 10.624 207.031 11.168 205.815 11.168C204.103 11.168 202.839 10.144 202.631 8.528H209.655C209.671 8.32 209.687 8.144 209.687 8.032C209.687 6.896 209.319 5.904 208.583 5.072C207.863 4.224 206.903 3.808 205.719 3.808ZM205.719 4.832C206.439 4.832 207.079 5.072 207.623 5.536C208.167 6 208.487 6.656 208.599 7.504H202.631C202.839 5.92 204.055 4.832 205.719 4.832ZM216.173 4H213.869V1.76L212.812 2.08V4H211.133V5.024H212.812V9.872C212.812 11.728 213.933 12.336 216.173 12V11.072C214.637 11.136 213.869 11.248 213.869 9.872V5.024H216.173V4ZM219.213 10.64L218.573 14.24H219.533L220.493 10.64H219.213ZM231.904 12.192C233.456 12.192 234.832 11.392 235.488 10.112L234.608 9.6C234.08 10.56 233.104 11.168 231.904 11.168C231.024 11.168 230.272 10.864 229.664 10.256C229.056 9.632 228.752 8.88 228.752 8C228.752 7.12 229.056 6.368 229.664 5.76C230.272 5.136 231.024 4.832 231.904 4.832C233.104 4.832 234.112 5.44 234.544 6.4L235.408 5.904C234.832 4.624 233.488 3.808 231.904 3.808C230.704 3.808 229.696 4.208 228.896 5.024C228.096 5.824 227.696 6.816 227.696 8C227.696 9.184 228.096 10.176 228.896 10.992C229.696 11.792 230.704 12.192 231.904 12.192ZM244.43 10.992C245.246 10.176 245.662 9.184 245.662 8C245.662 6.816 245.246 5.824 244.43 5.024C243.614 4.208 242.622 3.808 241.454 3.808C240.286 3.808 239.278 4.208 238.462 5.024C237.646 5.824 237.246 6.816 237.246 8C237.246 9.184 237.646 10.176 238.462 10.992C239.278 11.792 240.286 12.192 241.454 12.192C242.622 12.192 243.614 11.792 244.43 10.992ZM239.214 10.256C238.606 9.632 238.302 8.88 238.302 8C238.302 7.12 238.606 6.368 239.214 5.76C239.822 5.136 240.574 4.832 241.454 4.832C242.334 4.832 243.086 5.136 243.694 5.76C244.302 6.368 244.606 7.12 244.606 8C244.606 8.88 244.302 9.632 243.694 10.256C243.086 10.864 242.334 11.168 241.454 11.168C240.574 11.168 239.822 10.864 239.214 10.256ZM251.973 3.808C250.773 3.808 249.877 4.288 249.285 5.248V4H248.229V12H249.285V7.808C249.285 5.776 250.341 4.832 251.877 4.832C253.269 4.832 254.053 5.664 254.053 7.088V12H255.109V7.088C255.109 5.088 253.909 3.808 251.973 3.808ZM258.783 6.096C258.783 5.28 259.551 4.832 260.463 4.832C261.439 4.832 262.079 5.2 262.383 5.952L263.263 5.44C262.799 4.432 261.759 3.808 260.463 3.808C259.679 3.808 259.023 4.032 258.495 4.464C257.983 4.896 257.727 5.44 257.727 6.096C257.727 7.824 259.407 8.192 260.751 8.528C261.663 8.768 262.399 9.168 262.399 9.888C262.399 10.768 261.599 11.168 260.559 11.168C259.487 11.168 258.671 10.656 258.367 9.824L257.471 10.352C257.903 11.44 259.023 12.192 260.559 12.192C261.407 12.192 262.111 11.984 262.639 11.552C263.183 11.12 263.455 10.576 263.455 9.888C263.455 8.16 261.775 7.792 260.431 7.456C259.519 7.216 258.783 6.816 258.783 6.096ZM269.479 3.808C268.247 3.808 267.255 4.208 266.471 5.008C265.687 5.808 265.303 6.8 265.303 8C265.303 9.216 265.703 10.224 266.487 11.008C267.271 11.792 268.295 12.192 269.559 12.192C271.111 12.192 272.375 11.488 273.079 10.352L272.151 9.808C271.703 10.624 270.791 11.168 269.575 11.168C267.863 11.168 266.599 10.144 266.391 8.528H273.415C273.431 8.32 273.447 8.144 273.447 8.032C273.447 6.896 273.079 5.904 272.343 5.072C271.623 4.224 270.663 3.808 269.479 3.808ZM269.479 4.832C270.199 4.832 270.839 5.072 271.383 5.536C271.927 6 272.247 6.656 272.359 7.504H266.391C266.599 5.92 267.815 4.832 269.479 4.832ZM279.654 12.192C281.206 12.192 282.582 11.392 283.238 10.112L282.358 9.6C281.83 10.56 280.854 11.168 279.654 11.168C278.774 11.168 278.022 10.864 277.414 10.256C276.806 9.632 276.502 8.88 276.502 8C276.502 7.12 276.806 6.368 277.414 5.76C278.022 5.136 278.774 4.832 279.654 4.832C280.854 4.832 281.862 5.44 282.294 6.4L283.158 5.904C282.582 4.624 281.238 3.808 279.654 3.808C278.454 3.808 277.446 4.208 276.646 5.024C275.846 5.824 275.446 6.816 275.446 8C275.446 9.184 275.846 10.176 276.646 10.992C277.446 11.792 278.454 12.192 279.654 12.192ZM289.794 4H287.49V1.76L286.434 2.08V4H284.754V5.024H286.434V9.872C286.434 11.728 287.554 12.336 289.794 12V11.072C288.258 11.136 287.49 11.248 287.49 9.872V5.024H289.794V4ZM295.566 3.808C294.334 3.808 293.342 4.208 292.558 5.008C291.774 5.808 291.39 6.8 291.39 8C291.39 9.216 291.79 10.224 292.574 11.008C293.358 11.792 294.382 12.192 295.646 12.192C297.198 12.192 298.462 11.488 299.166 10.352L298.238 9.808C297.79 10.624 296.878 11.168 295.662 11.168C293.95 11.168 292.686 10.144 292.478 8.528H299.502C299.518 8.32 299.534 8.144 299.534 8.032C299.534 6.896 299.166 5.904 298.43 5.072C297.71 4.224 296.75 3.808 295.566 3.808ZM295.566 4.832C296.286 4.832 296.926 5.072 297.47 5.536C298.014 6 298.334 6.656 298.446 7.504H292.478C292.686 5.92 293.902 4.832 295.566 4.832ZM306.019 4H303.715V1.76L302.659 2.08V4H300.979V5.024H302.659V9.872C302.659 11.728 303.779 12.336 306.019 12V11.072C304.483 11.136 303.715 11.248 303.715 9.872V5.024H306.019V4ZM314.211 8.192C314.211 10.224 313.155 11.168 311.619 11.168C310.227 11.168 309.443 10.336 309.443 8.912V4H308.387V8.912C308.387 10.912 309.587 12.192 311.523 12.192C312.723 12.192 313.619 11.712 314.211 10.752V12H315.267V4H314.211V8.192ZM319.357 4H318.301V12H319.357V7.552C319.357 5.712 320.429 4.896 321.885 4.896V3.872C320.685 3.872 319.853 4.352 319.357 5.328V4ZM335.812 5.568C335.077 4.4 334.005 3.808 332.581 3.808C331.445 3.808 330.469 4.208 329.653 5.024C328.853 5.84 328.453 6.832 328.453 8C328.453 9.168 328.853 10.16 329.653 10.976C330.469 11.792 331.445 12.192 332.581 12.192C334.005 12.192 335.077 11.6 335.812 10.432V12H336.869V4H335.812V5.568ZM330.421 10.256C329.812 9.632 329.509 8.88 329.509 8C329.509 7.12 329.812 6.368 330.421 5.76C331.029 5.136 331.781 4.832 332.661 4.832C333.541 4.832 334.293 5.136 334.901 5.76C335.509 6.368 335.812 7.12 335.812 8C335.812 8.88 335.509 9.632 334.901 10.256C334.293 10.864 333.541 11.168 332.661 11.168C331.781 11.168 331.029 10.864 330.421 10.256ZM346.784 5.568C346.048 4.4 344.976 3.808 343.552 3.808C342.416 3.808 341.44 4.208 340.624 5.024C339.824 5.84 339.424 6.832 339.424 8C339.424 9.168 339.824 10.16 340.624 10.976C341.44 11.792 342.416 12.192 343.552 12.192C344.976 12.192 346.048 11.6 346.784 10.432V12H347.84V0.799999H346.784V5.568ZM341.392 10.256C340.784 9.632 340.48 8.88 340.48 8C340.48 7.12 340.784 6.368 341.392 5.76C342 5.136 342.752 4.832 343.632 4.832C344.512 4.832 345.264 5.136 345.872 5.76C346.48 6.368 346.784 7.12 346.784 8C346.784 8.88 346.48 9.632 345.872 10.256C345.264 10.864 344.512 11.168 343.632 11.168C342.752 11.168 342 10.864 341.392 10.256ZM351.948 2.08C352.252 1.776 352.252 1.296 351.948 0.992C351.644 0.688 351.164 0.688 350.86 0.992C350.556 1.296 350.556 1.776 350.86 2.08C351.164 2.384 351.644 2.384 351.948 2.08ZM351.932 12V4H350.876V12H351.932ZM359.261 3.808C357.837 3.808 356.765 4.4 356.029 5.568V4H354.973V15.2H356.029V10.432C356.765 11.6 357.837 12.192 359.261 12.192C360.397 12.192 361.373 11.792 362.173 10.976C362.989 10.16 363.389 9.168 363.389 8C363.389 6.832 362.989 5.84 362.173 5.024C361.373 4.208 360.397 3.808 359.261 3.808ZM356.941 10.256C356.333 9.632 356.029 8.88 356.029 8C356.029 7.12 356.333 6.368 356.941 5.76C357.549 5.136 358.301 4.832 359.181 4.832C360.061 4.832 360.813 5.136 361.421 5.76C362.029 6.368 362.333 7.12 362.333 8C362.333 8.88 362.029 9.632 361.421 10.256C360.813 10.864 360.061 11.168 359.181 11.168C358.301 11.168 357.549 10.864 356.941 10.256ZM367.017 2.08C367.321 1.776 367.321 1.296 367.017 0.992C366.713 0.688 366.233 0.688 365.929 0.992C365.625 1.296 365.625 1.776 365.929 2.08C366.233 2.384 366.713 2.384 367.017 2.08ZM367.001 12V4H365.945V12H367.001ZM370.874 6.096C370.874 5.28 371.642 4.832 372.554 4.832C373.53 4.832 374.17 5.2 374.474 5.952L375.354 5.44C374.89 4.432 373.85 3.808 372.554 3.808C371.77 3.808 371.114 4.032 370.586 4.464C370.074 4.896 369.818 5.44 369.818 6.096C369.818 7.824 371.498 8.192 372.842 8.528C373.754 8.768 374.49 9.168 374.49 9.888C374.49 10.768 373.69 11.168 372.65 11.168C371.578 11.168 370.762 10.656 370.458 9.824L369.562 10.352C369.994 11.44 371.114 12.192 372.65 12.192C373.498 12.192 374.202 11.984 374.73 11.552C375.274 11.12 375.546 10.576 375.546 9.888C375.546 8.16 373.866 7.792 372.522 7.456C371.61 7.216 370.874 6.816 370.874 6.096ZM381.601 12.192C383.153 12.192 384.529 11.392 385.185 10.112L384.305 9.6C383.777 10.56 382.801 11.168 381.601 11.168C380.721 11.168 379.969 10.864 379.361 10.256C378.753 9.632 378.449 8.88 378.449 8C378.449 7.12 378.753 6.368 379.361 5.76C379.969 5.136 380.721 4.832 381.601 4.832C382.801 4.832 383.809 5.44 384.241 6.4L385.105 5.904C384.529 4.624 383.185 3.808 381.601 3.808C380.401 3.808 379.393 4.208 378.593 5.024C377.793 5.824 377.393 6.816 377.393 8C377.393 9.184 377.793 10.176 378.593 10.992C379.393 11.792 380.401 12.192 381.601 12.192ZM388.573 2.08C388.877 1.776 388.877 1.296 388.573 0.992C388.269 0.688 387.789 0.688 387.485 0.992C387.181 1.296 387.181 1.776 387.485 2.08C387.789 2.384 388.269 2.384 388.573 2.08ZM388.557 12V4H387.501V12H388.557ZM395.342 3.808C394.142 3.808 393.246 4.288 392.654 5.248V4H391.598V12H392.654V7.808C392.654 5.776 393.71 4.832 395.246 4.832C396.638 4.832 397.422 5.664 397.422 7.088V12H398.478V7.088C398.478 5.088 397.278 3.808 395.342 3.808ZM408.2 5.568C407.464 4.4 406.392 3.808 404.968 3.808C403.832 3.808 402.856 4.208 402.04 5.024C401.24 5.84 400.84 6.832 400.84 8C400.84 9.168 401.24 10.16 402.04 10.976C402.856 11.792 403.832 12.192 404.968 12.192C406.392 12.192 407.464 11.6 408.2 10.432V11.68C408.2 13.328 407.08 14.368 405.24 14.368C403.816 14.368 402.856 13.888 402.376 12.912L401.448 13.44C402.104 14.736 403.368 15.392 405.24 15.392C406.344 15.392 407.288 15.056 408.072 14.4C408.856 13.744 409.256 12.832 409.256 11.68V4H408.2V5.568ZM402.808 10.256C402.2 9.632 401.896 8.88 401.896 8C401.896 7.12 402.2 6.368 402.808 5.76C403.416 5.136 404.168 4.832 405.048 4.832C405.928 4.832 406.68 5.136 407.288 5.76C407.896 6.368 408.2 7.12 408.2 8C408.2 8.88 407.896 9.632 407.288 10.256C406.68 10.864 405.928 11.168 405.048 11.168C404.168 11.168 403.416 10.864 402.808 10.256ZM4.816 29.808C3.584 29.808 2.592 30.208 1.808 31.008C1.024 31.808 0.64 32.8 0.64 34C0.64 35.216 1.04 36.224 1.824 37.008C2.608 37.792 3.632 38.192 4.896 38.192C6.448 38.192 7.712 37.488 8.416 36.352L7.488 35.808C7.04 36.624 6.128 37.168 4.912 37.168C3.2 37.168 1.936 36.144 1.728 34.528H8.752C8.768 34.32 8.784 34.144 8.784 34.032C8.784 32.896 8.416 31.904 7.68 31.072C6.96 30.224 6 29.808 4.816 29.808ZM4.816 30.832C5.536 30.832 6.176 31.072 6.72 31.536C7.264 32 7.584 32.656 7.696 33.504H1.728C1.936 31.92 3.152 30.832 4.816 30.832ZM12.3198 38V26.32H11.2638V38H12.3198ZM16.4326 28.08C16.7366 27.776 16.7366 27.296 16.4326 26.992C16.1286 26.688 15.6486 26.688 15.3446 26.992C15.0406 27.296 15.0406 27.776 15.3446 28.08C15.6486 28.384 16.1286 28.384 16.4326 28.08ZM16.4166 38V30H15.3606V38H16.4166ZM23.6975 30H21.3935V27.76L20.3375 28.08V30H18.6575V31.024H20.3375V35.872C20.3375 37.728 21.4575 38.336 23.6975 38V37.072C22.1615 37.136 21.3935 37.248 21.3935 35.872V31.024H23.6975V30ZM27.6015 37.904C27.9375 37.568 27.9375 36.992 27.6015 36.656C27.2655 36.32 26.6895 36.32 26.3535 36.656C26.0175 36.992 26.0175 37.568 26.3535 37.904C26.6895 38.24 27.2655 38.24 27.6015 37.904ZM42.025 26.8H35.705V38H36.825V33.04H41.785V31.984H36.825V27.856H42.025V26.8ZM51.4594 31.568C50.7234 30.4 49.6514 29.808 48.2274 29.808C47.0914 29.808 46.1154 30.208 45.2994 31.024C44.4994 31.84 44.0994 32.832 44.0994 34C44.0994 35.168 44.4994 36.16 45.2994 36.976C46.1154 37.792 47.0914 38.192 48.2274 38.192C49.6514 38.192 50.7234 37.6 51.4594 36.432V38H52.5154V30H51.4594V31.568ZM46.0674 36.256C45.4594 35.632 45.1554 34.88 45.1554 34C45.1554 33.12 45.4594 32.368 46.0674 31.76C46.6754 31.136 47.4274 30.832 48.3074 30.832C49.1874 30.832 49.9394 31.136 50.5474 31.76C51.1554 32.368 51.4594 33.12 51.4594 34C51.4594 34.88 51.1554 35.632 50.5474 36.256C49.9394 36.864 49.1874 37.168 48.3074 37.168C47.4274 37.168 46.6754 36.864 46.0674 36.256ZM61.1833 34.192C61.1833 36.224 60.1273 37.168 58.5913 37.168C57.1993 37.168 56.4153 36.336 56.4153 34.912V30H55.3593V34.912C55.3593 36.912 56.5593 38.192 58.4953 38.192C59.6953 38.192 60.5913 37.712 61.1833 36.752V38H62.2393V30H61.1833V34.192ZM69.0011 38.192C70.5531 38.192 71.9291 37.392 72.5851 36.112L71.7051 35.6C71.1771 36.56 70.2011 37.168 69.0011 37.168C68.1211 37.168 67.3691 36.864 66.7611 36.256C66.1531 35.632 65.8491 34.88 65.8491 34C65.8491 33.12 66.1531 32.368 66.7611 31.76C67.3691 31.136 68.1211 30.832 69.0011 30.832C70.2011 30.832 71.2091 31.44 71.6411 32.4L72.5051 31.904C71.9291 30.624 70.5851 29.808 69.0011 29.808C67.8011 29.808 66.7931 30.208 65.9931 31.024C65.1931 31.824 64.7931 32.816 64.7931 34C64.7931 35.184 65.1931 36.176 65.9931 36.992C66.7931 37.792 67.8011 38.192 69.0011 38.192ZM75.9733 28.08C76.2773 27.776 76.2773 27.296 75.9733 26.992C75.6693 26.688 75.1893 26.688 74.8853 26.992C74.5813 27.296 74.5813 27.776 74.8853 28.08C75.1893 28.384 75.6693 28.384 75.9733 28.08ZM75.9573 38V30H74.9013V38H75.9573ZM83.2861 29.808C81.8621 29.808 80.7901 30.4 80.0541 31.568V26.8H78.9981V38H80.0541V36.432C80.7901 37.6 81.8621 38.192 83.2861 38.192C84.4221 38.192 85.3981 37.792 86.1981 36.976C87.0141 36.16 87.4141 35.168 87.4141 34C87.4141 32.832 87.0141 31.84 86.1981 31.024C85.3981 30.208 84.4221 29.808 83.2861 29.808ZM80.9661 36.256C80.3581 35.632 80.0541 34.88 80.0541 34C80.0541 33.12 80.3581 32.368 80.9661 31.76C81.5741 31.136 82.3261 30.832 83.2061 30.832C84.0861 30.832 84.8381 31.136 85.4461 31.76C86.0541 32.368 86.3581 33.12 86.3581 34C86.3581 34.88 86.0541 35.632 85.4461 36.256C84.8381 36.864 84.0861 37.168 83.2061 37.168C82.3261 37.168 81.5741 36.864 80.9661 36.256ZM95.602 34.192C95.602 36.224 94.546 37.168 93.01 37.168C91.618 37.168 90.834 36.336 90.834 34.912V30H89.778V34.912C89.778 36.912 90.978 38.192 92.914 38.192C94.114 38.192 95.01 37.712 95.602 36.752V38H96.658V30H95.602V34.192ZM100.524 32.096C100.524 31.28 101.292 30.832 102.204 30.832C103.18 30.832 103.82 31.2 104.124 31.952L105.004 31.44C104.54 30.432 103.5 29.808 102.204 29.808C101.42 29.808 100.764 30.032 100.236 30.464C99.7239 30.896 99.4679 31.44 99.4679 32.096C99.4679 33.824 101.148 34.192 102.492 34.528C103.404 34.768 104.14 35.168 104.14 35.888C104.14 36.768 103.34 37.168 102.3 37.168C101.228 37.168 100.412 36.656 100.108 35.824L99.2119 36.352C99.6439 37.44 100.764 38.192 102.3 38.192C103.148 38.192 103.852 37.984 104.38 37.552C104.924 37.12 105.196 36.576 105.196 35.888C105.196 34.16 103.516 33.792 102.172 33.456C101.26 33.216 100.524 32.816 100.524 32.096ZM116.798 30H114.494V27.76L113.438 28.08V30H111.758V31.024H113.438V35.872C113.438 37.728 114.558 38.336 116.798 38V37.072C115.262 37.136 114.494 37.248 114.494 35.872V31.024H116.798V30ZM120.414 30H119.358V38H120.414V33.552C120.414 31.712 121.486 30.896 122.942 30.896V29.872C121.742 29.872 120.91 30.352 120.414 31.328V30ZM126.261 28.08C126.565 27.776 126.565 27.296 126.261 26.992C125.957 26.688 125.477 26.688 125.173 26.992C124.869 27.296 124.869 27.776 125.173 28.08C125.477 28.384 125.957 28.384 126.261 28.08ZM126.245 38V30H125.189V38H126.245ZM130.118 32.096C130.118 31.28 130.886 30.832 131.798 30.832C132.774 30.832 133.414 31.2 133.718 31.952L134.598 31.44C134.134 30.432 133.094 29.808 131.798 29.808C131.014 29.808 130.358 30.032 129.83 30.464C129.318 30.896 129.062 31.44 129.062 32.096C129.062 33.824 130.742 34.192 132.086 34.528C132.998 34.768 133.734 35.168 133.734 35.888C133.734 36.768 132.934 37.168 131.894 37.168C130.822 37.168 130.006 36.656 129.702 35.824L128.806 36.352C129.238 37.44 130.358 38.192 131.894 38.192C132.742 38.192 133.446 37.984 133.974 37.552C134.518 37.12 134.79 36.576 134.79 35.888C134.79 34.16 133.11 33.792 131.766 33.456C130.854 33.216 130.118 32.816 130.118 32.096ZM141.279 30H138.975V27.76L137.919 28.08V30H136.239V31.024H137.919V35.872C137.919 37.728 139.039 38.336 141.279 38V37.072C139.743 37.136 138.975 37.248 138.975 35.872V31.024H141.279V30ZM144.911 28.08C145.215 27.776 145.215 27.296 144.911 26.992C144.607 26.688 144.127 26.688 143.823 26.992C143.519 27.296 143.519 27.776 143.823 28.08C144.127 28.384 144.607 28.384 144.911 28.08ZM144.895 38V30H143.839V38H144.895ZM154.816 31.568C154.08 30.4 153.008 29.808 151.584 29.808C150.448 29.808 149.472 30.208 148.656 31.024C147.856 31.84 147.456 32.832 147.456 34C147.456 35.168 147.856 36.16 148.656 36.976C149.472 37.792 150.448 38.192 151.584 38.192C153.008 38.192 154.08 37.6 154.816 36.432V41.2H155.872V30H154.816V31.568ZM149.424 36.256C148.816 35.632 148.512 34.88 148.512 34C148.512 33.12 148.816 32.368 149.424 31.76C150.032 31.136 150.784 30.832 151.664 30.832C152.544 30.832 153.296 31.136 153.904 31.76C154.512 32.368 154.816 33.12 154.816 34C154.816 34.88 154.512 35.632 153.904 36.256C153.296 36.864 152.544 37.168 151.664 37.168C150.784 37.168 150.032 36.864 149.424 36.256ZM164.54 34.192C164.54 36.224 163.484 37.168 161.948 37.168C160.556 37.168 159.772 36.336 159.772 34.912V30H158.716V34.912C158.716 36.912 159.916 38.192 161.852 38.192C163.052 38.192 163.948 37.712 164.54 36.752V38H165.596V30H164.54V34.192ZM172.325 29.808C171.093 29.808 170.101 30.208 169.317 31.008C168.533 31.808 168.149 32.8 168.149 34C168.149 35.216 168.549 36.224 169.333 37.008C170.117 37.792 171.141 38.192 172.405 38.192C173.957 38.192 175.221 37.488 175.925 36.352L174.997 35.808C174.549 36.624 173.637 37.168 172.421 37.168C170.709 37.168 169.445 36.144 169.237 34.528H176.261C176.277 34.32 176.293 34.144 176.293 34.032C176.293 32.896 175.925 31.904 175.189 31.072C174.469 30.224 173.509 29.808 172.325 29.808ZM172.325 30.832C173.045 30.832 173.685 31.072 174.229 31.536C174.773 32 175.093 32.656 175.205 33.504H169.237C169.445 31.92 170.661 30.832 172.325 30.832ZM186.533 36.896L183.733 30H182.613L185.893 38H187.173L190.453 30H189.333L186.533 36.896ZM198.161 34.192C198.161 36.224 197.105 37.168 195.569 37.168C194.177 37.168 193.393 36.336 193.393 34.912V30H192.337V34.912C192.337 36.912 193.537 38.192 195.473 38.192C196.673 38.192 197.569 37.712 198.161 36.752V38H199.217V30H198.161V34.192ZM203.307 38V26.32H202.251V38H203.307ZM210.636 29.808C209.212 29.808 208.14 30.4 207.404 31.568V30H206.348V41.2H207.404V36.432C208.14 37.6 209.212 38.192 210.636 38.192C211.772 38.192 212.748 37.792 213.548 36.976C214.364 36.16 214.764 35.168 214.764 34C214.764 32.832 214.364 31.84 213.548 31.024C212.748 30.208 211.772 29.808 210.636 29.808ZM208.316 36.256C207.708 35.632 207.404 34.88 207.404 34C207.404 33.12 207.708 32.368 208.316 31.76C208.924 31.136 209.676 30.832 210.556 30.832C211.436 30.832 212.188 31.136 212.796 31.76C213.404 32.368 213.708 33.12 213.708 34C213.708 34.88 213.404 35.632 212.796 36.256C212.188 36.864 211.436 37.168 210.556 37.168C209.676 37.168 208.924 36.864 208.316 36.256ZM222.952 34.192C222.952 36.224 221.896 37.168 220.36 37.168C218.968 37.168 218.184 36.336 218.184 34.912V30H217.128V34.912C217.128 36.912 218.328 38.192 220.264 38.192C221.464 38.192 222.36 37.712 222.952 36.752V38H224.008V30H222.952V34.192ZM231.282 30H228.978V27.76L227.922 28.08V30H226.242V31.024H227.922V35.872C227.922 37.728 229.042 38.336 231.282 38V37.072C229.746 37.136 228.978 37.248 228.978 35.872V31.024H231.282V30ZM240.238 31.568C239.502 30.4 238.43 29.808 237.006 29.808C235.87 29.808 234.894 30.208 234.078 31.024C233.278 31.84 232.878 32.832 232.878 34C232.878 35.168 233.278 36.16 234.078 36.976C234.894 37.792 235.87 38.192 237.006 38.192C238.43 38.192 239.502 37.6 240.238 36.432V38H241.294V30H240.238V31.568ZM234.846 36.256C234.238 35.632 233.934 34.88 233.934 34C233.934 33.12 234.238 32.368 234.846 31.76C235.454 31.136 236.206 30.832 237.086 30.832C237.966 30.832 238.718 31.136 239.326 31.76C239.934 32.368 240.238 33.12 240.238 34C240.238 34.88 239.934 35.632 239.326 36.256C238.718 36.864 237.966 37.168 237.086 37.168C236.206 37.168 235.454 36.864 234.846 36.256ZM248.569 30H246.265V27.76L245.209 28.08V30H243.529V31.024H245.209V35.872C245.209 37.728 246.329 38.336 248.569 38V37.072C247.033 37.136 246.265 37.248 246.265 35.872V31.024H248.569V30ZM254.341 29.808C253.109 29.808 252.117 30.208 251.333 31.008C250.549 31.808 250.165 32.8 250.165 34C250.165 35.216 250.565 36.224 251.349 37.008C252.133 37.792 253.157 38.192 254.421 38.192C255.973 38.192 257.237 37.488 257.941 36.352L257.013 35.808C256.565 36.624 255.653 37.168 254.437 37.168C252.725 37.168 251.461 36.144 251.253 34.528H258.277C258.293 34.32 258.309 34.144 258.309 34.032C258.309 32.896 257.941 31.904 257.205 31.072C256.485 30.224 255.525 29.808 254.341 29.808ZM254.341 30.832C255.061 30.832 255.701 31.072 256.245 31.536C256.789 32 257.109 32.656 257.221 33.504H251.253C251.461 31.92 252.677 30.832 254.341 30.832ZM271.221 34.192C271.221 36.224 270.165 37.168 268.629 37.168C267.237 37.168 266.453 36.336 266.453 34.912V30H265.397V34.912C265.397 36.912 266.597 38.192 268.533 38.192C269.733 38.192 270.629 37.712 271.221 36.752V38H272.277V30H271.221V34.192ZM276.367 38V26.32H275.311V38H276.367ZM283.648 30H281.344V27.76L280.288 28.08V30H278.608V31.024H280.288V35.872C280.288 37.728 281.408 38.336 283.648 38V37.072C282.112 37.136 281.344 37.248 281.344 35.872V31.024H283.648V30ZM287.263 30H286.207V38H287.263V33.552C287.263 31.712 288.335 30.896 289.791 30.896V29.872C288.591 29.872 287.759 30.352 287.263 31.328V30ZM293.111 28.08C293.415 27.776 293.415 27.296 293.111 26.992C292.807 26.688 292.327 26.688 292.023 26.992C291.719 27.296 291.719 27.776 292.023 28.08C292.327 28.384 292.807 28.384 293.111 28.08ZM293.095 38V30H292.039V38H293.095ZM299.864 38.192C301.416 38.192 302.792 37.392 303.448 36.112L302.568 35.6C302.04 36.56 301.064 37.168 299.864 37.168C298.984 37.168 298.232 36.864 297.624 36.256C297.016 35.632 296.712 34.88 296.712 34C296.712 33.12 297.016 32.368 297.624 31.76C298.232 31.136 298.984 30.832 299.864 30.832C301.064 30.832 302.072 31.44 302.504 32.4L303.368 31.904C302.792 30.624 301.448 29.808 299.864 29.808C298.664 29.808 297.656 30.208 296.856 31.024C296.056 31.824 295.656 32.816 295.656 34C295.656 35.184 296.056 36.176 296.856 36.992C297.656 37.792 298.664 38.192 299.864 38.192ZM309.382 29.808C308.15 29.808 307.158 30.208 306.374 31.008C305.59 31.808 305.206 32.8 305.206 34C305.206 35.216 305.606 36.224 306.39 37.008C307.174 37.792 308.198 38.192 309.462 38.192C311.014 38.192 312.278 37.488 312.982 36.352L312.054 35.808C311.606 36.624 310.694 37.168 309.478 37.168C307.766 37.168 306.502 36.144 306.294 34.528H313.318C313.334 34.32 313.35 34.144 313.35 34.032C313.35 32.896 312.982 31.904 312.246 31.072C311.526 30.224 310.566 29.808 309.382 29.808ZM309.382 30.832C310.102 30.832 310.742 31.072 311.286 31.536C311.83 32 312.15 32.656 312.262 33.504H306.294C306.502 31.92 307.718 30.832 309.382 30.832ZM316.349 32.096C316.349 31.28 317.117 30.832 318.029 30.832C319.005 30.832 319.645 31.2 319.949 31.952L320.829 31.44C320.365 30.432 319.325 29.808 318.029 29.808C317.245 29.808 316.589 30.032 316.061 30.464C315.549 30.896 315.293 31.44 315.293 32.096C315.293 33.824 316.973 34.192 318.317 34.528C319.229 34.768 319.965 35.168 319.965 35.888C319.965 36.768 319.165 37.168 318.125 37.168C317.053 37.168 316.237 36.656 315.933 35.824L315.037 36.352C315.469 37.44 316.589 38.192 318.125 38.192C318.973 38.192 319.677 37.984 320.205 37.552C320.749 37.12 321.021 36.576 321.021 35.888C321.021 34.16 319.341 33.792 317.997 33.456C317.085 33.216 316.349 32.816 316.349 32.096ZM334.015 34.192C334.015 36.224 332.959 37.168 331.423 37.168C330.031 37.168 329.247 36.336 329.247 34.912V30H328.191V34.912C328.191 36.912 329.391 38.192 331.327 38.192C332.527 38.192 333.423 37.712 334.015 36.752V38H335.071V30H334.015V34.192ZM342.344 30H340.04V27.76L338.984 28.08V30H337.304V31.024H338.984V35.872C338.984 37.728 340.104 38.336 342.344 38V37.072C340.808 37.136 340.04 37.248 340.04 35.872V31.024H342.344V30ZM358.232 29.808C357.08 29.808 356.216 30.288 355.64 31.264C355.176 30.288 354.36 29.808 353.208 29.808C352.152 29.808 351.336 30.256 350.76 31.168V30H349.704V38H350.76V33.568C350.76 31.712 351.784 30.832 353.064 30.832C354.216 30.832 354.936 31.6 354.936 33.008V38H355.992V33.568C355.992 31.696 356.888 30.832 358.216 30.832C359.384 30.832 360.168 31.616 360.168 33.008V38H361.224V33.008C361.224 31.04 360.024 29.808 358.232 29.808ZM370.947 31.568C370.211 30.4 369.139 29.808 367.715 29.808C366.579 29.808 365.603 30.208 364.787 31.024C363.987 31.84 363.587 32.832 363.587 34C363.587 35.168 363.987 36.16 364.787 36.976C365.603 37.792 366.579 38.192 367.715 38.192C369.139 38.192 370.211 37.6 370.947 36.432V38H372.003V30H370.947V31.568ZM365.555 36.256C364.947 35.632 364.643 34.88 364.643 34C364.643 33.12 364.947 32.368 365.555 31.76C366.163 31.136 366.915 30.832 367.795 30.832C368.675 30.832 369.427 31.136 370.035 31.76C370.643 32.368 370.947 33.12 370.947 34C370.947 34.88 370.643 35.632 370.035 36.256C369.427 36.864 368.675 37.168 367.795 37.168C366.915 37.168 366.163 36.864 365.555 36.256ZM380.671 34.192C380.671 36.224 379.615 37.168 378.079 37.168C376.687 37.168 375.903 36.336 375.903 34.912V30H374.847V34.912C374.847 36.912 376.047 38.192 377.983 38.192C379.183 38.192 380.079 37.712 380.671 36.752V38H381.727V30H380.671V34.192ZM385.817 30H384.761V38H385.817V33.552C385.817 31.712 386.889 30.896 388.345 30.896V29.872C387.145 29.872 386.313 30.352 385.817 31.328V30ZM391.664 28.08C391.968 27.776 391.968 27.296 391.664 26.992C391.36 26.688 390.88 26.688 390.576 26.992C390.272 27.296 390.272 27.776 390.576 28.08C390.88 28.384 391.36 28.384 391.664 28.08ZM391.648 38V30H390.592V38H391.648ZM395.521 32.096C395.521 31.28 396.289 30.832 397.201 30.832C398.177 30.832 398.817 31.2 399.121 31.952L400.001 31.44C399.537 30.432 398.497 29.808 397.201 29.808C396.417 29.808 395.761 30.032 395.233 30.464C394.721 30.896 394.465 31.44 394.465 32.096C394.465 33.824 396.145 34.192 397.489 34.528C398.401 34.768 399.137 35.168 399.137 35.888C399.137 36.768 398.337 37.168 397.297 37.168C396.225 37.168 395.409 36.656 395.105 35.824L394.209 36.352C394.641 37.44 395.761 38.192 397.297 38.192C398.145 38.192 398.849 37.984 399.377 37.552C399.921 37.12 400.193 36.576 400.193 35.888C400.193 34.16 398.513 33.792 397.169 33.456C396.257 33.216 395.521 32.816 395.521 32.096ZM5.36 56H3.056V53.76L2 54.08V56H0.32V57.024H2V61.872C2 63.728 3.12 64.336 5.36 64V63.072C3.824 63.136 3.056 63.248 3.056 61.872V57.024H5.36V56ZM11.1316 55.808C9.89963 55.808 8.90763 56.208 8.12363 57.008C7.33963 57.808 6.95563 58.8 6.95563 60C6.95563 61.216 7.35563 62.224 8.13963 63.008C8.92363 63.792 9.94763 64.192 11.2116 64.192C12.7636 64.192 14.0276 63.488 14.7316 62.352L13.8036 61.808C13.3556 62.624 12.4436 63.168 11.2276 63.168C9.51563 63.168 8.25163 62.144 8.04363 60.528H15.0676C15.0836 60.32 15.0996 60.144 15.0996 60.032C15.0996 58.896 14.7316 57.904 13.9956 57.072C13.2756 56.224 12.3156 55.808 11.1316 55.808ZM11.1316 56.832C11.8516 56.832 12.4916 57.072 13.0356 57.536C13.5796 58 13.8996 58.656 14.0116 59.504H8.04363C8.25163 57.92 9.46763 56.832 11.1316 56.832ZM18.6354 64V52.32H17.5794V64H18.6354ZM22.7322 64V52.32H21.6762V64H22.7322ZM31.4051 60.192C31.4051 62.224 30.3491 63.168 28.8131 63.168C27.4211 63.168 26.6371 62.336 26.6371 60.912V56H25.5811V60.912C25.5811 62.912 26.7811 64.192 28.7171 64.192C29.9171 64.192 30.8131 63.712 31.4051 62.752V64H32.4611V56H31.4051V60.192ZM36.327 58.096C36.327 57.28 37.095 56.832 38.007 56.832C38.983 56.832 39.623 57.2 39.927 57.952L40.807 57.44C40.343 56.432 39.303 55.808 38.007 55.808C37.223 55.808 36.567 56.032 36.039 56.464C35.527 56.896 35.271 57.44 35.271 58.096C35.271 59.824 36.951 60.192 38.295 60.528C39.207 60.768 39.943 61.168 39.943 61.888C39.943 62.768 39.143 63.168 38.103 63.168C37.031 63.168 36.215 62.656 35.911 61.824L35.015 62.352C35.447 63.44 36.567 64.192 38.103 64.192C38.951 64.192 39.655 63.984 40.183 63.552C40.727 63.12 40.999 62.576 40.999 61.888C40.999 60.16 39.319 59.792 37.975 59.456C37.063 59.216 36.327 58.816 36.327 58.096ZM55.2406 57.568C54.5046 56.4 53.4326 55.808 52.0086 55.808C50.8726 55.808 49.8966 56.208 49.0806 57.024C48.2806 57.84 47.8806 58.832 47.8806 60C47.8806 61.168 48.2806 62.16 49.0806 62.976C49.8966 63.792 50.8726 64.192 52.0086 64.192C53.4326 64.192 54.5046 63.6 55.2406 62.432V64H56.2966V56H55.2406V57.568ZM49.8486 62.256C49.2406 61.632 48.9366 60.88 48.9366 60C48.9366 59.12 49.2406 58.368 49.8486 57.76C50.4566 57.136 51.2086 56.832 52.0886 56.832C52.9686 56.832 53.7206 57.136 54.3286 57.76C54.9366 58.368 55.2406 59.12 55.2406 60C55.2406 60.88 54.9366 61.632 54.3286 62.256C53.7206 62.864 52.9686 63.168 52.0886 63.168C51.2086 63.168 50.4566 62.864 49.8486 62.256ZM63.5725 56H61.2685V53.76L60.2125 54.08V56H58.5325V57.024H60.2125V61.872C60.2125 63.728 61.3325 64.336 63.5725 64V63.072C62.0365 63.136 61.2685 63.248 61.2685 61.872V57.024H63.5725V56ZM67.4765 63.904C67.8125 63.568 67.8125 62.992 67.4765 62.656C67.1405 62.32 66.5645 62.32 66.2285 62.656C65.8925 62.992 65.8925 63.568 66.2285 63.904C66.5645 64.24 67.1405 64.24 67.4765 63.904ZM75.58 52.8V64H76.7V59.84H79.58C80.588 59.84 81.42 59.504 82.092 58.832C82.764 58.16 83.1 57.328 83.1 56.32C83.1 55.312 82.764 54.48 82.092 53.808C81.42 53.136 80.588 52.8 79.58 52.8H75.58ZM76.7 58.784V53.856H79.58C80.268 53.856 80.844 54.096 81.292 54.56C81.756 55.024 81.98 55.6 81.98 56.32C81.98 57.04 81.756 57.632 81.292 58.096C80.844 58.56 80.268 58.784 79.58 58.784H76.7ZM91.7209 62.992C92.5369 62.176 92.9529 61.184 92.9529 60C92.9529 58.816 92.5369 57.824 91.7209 57.024C90.9049 56.208 89.9129 55.808 88.7449 55.808C87.5769 55.808 86.5689 56.208 85.7529 57.024C84.9369 57.824 84.5369 58.816 84.5369 60C84.5369 61.184 84.9369 62.176 85.7529 62.992C86.5689 63.792 87.5769 64.192 88.7449 64.192C89.9129 64.192 90.9049 63.792 91.7209 62.992ZM86.5049 62.256C85.8969 61.632 85.5929 60.88 85.5929 60C85.5929 59.12 85.8969 58.368 86.5049 57.76C87.1129 57.136 87.8649 56.832 88.7449 56.832C89.6249 56.832 90.3769 57.136 90.9849 57.76C91.5929 58.368 91.8969 59.12 91.8969 60C91.8969 60.88 91.5929 61.632 90.9849 62.256C90.3769 62.864 89.6249 63.168 88.7449 63.168C87.8649 63.168 87.1129 62.864 86.5049 62.256ZM96.1958 58.096C96.1958 57.28 96.9638 56.832 97.8758 56.832C98.8518 56.832 99.4918 57.2 99.7958 57.952L100.676 57.44C100.212 56.432 99.1718 55.808 97.8758 55.808C97.0918 55.808 96.4358 56.032 95.9078 56.464C95.3958 56.896 95.1398 57.44 95.1398 58.096C95.1398 59.824 96.8198 60.192 98.1638 60.528C99.0758 60.768 99.8118 61.168 99.8118 61.888C99.8118 62.768 99.0118 63.168 97.9718 63.168C96.8998 63.168 96.0838 62.656 95.7798 61.824L94.8838 62.352C95.3158 63.44 96.4358 64.192 97.9718 64.192C98.8198 64.192 99.5238 63.984 100.052 63.552C100.596 63.12 100.868 62.576 100.868 61.888C100.868 60.16 99.1878 59.792 97.8438 59.456C96.9318 59.216 96.1958 58.816 96.1958 58.096ZM108.983 60.192C108.983 62.224 107.927 63.168 106.391 63.168C104.999 63.168 104.215 62.336 104.215 60.912V56H103.159V60.912C103.159 62.912 104.359 64.192 106.295 64.192C107.495 64.192 108.391 63.712 108.983 62.752V64H110.039V56H108.983V60.192ZM116.769 55.808C115.537 55.808 114.545 56.208 113.761 57.008C112.977 57.808 112.593 58.8 112.593 60C112.593 61.216 112.993 62.224 113.777 63.008C114.561 63.792 115.585 64.192 116.849 64.192C118.401 64.192 119.665 63.488 120.369 62.352L119.441 61.808C118.993 62.624 118.081 63.168 116.865 63.168C115.153 63.168 113.889 62.144 113.681 60.528H120.705C120.721 60.32 120.737 60.144 120.737 60.032C120.737 58.896 120.369 57.904 119.633 57.072C118.913 56.224 117.953 55.808 116.769 55.808ZM116.769 56.832C117.489 56.832 118.129 57.072 118.673 57.536C119.217 58 119.537 58.656 119.649 59.504H113.681C113.889 57.92 115.105 56.832 116.769 56.832ZM124.273 56H123.217V64H124.273V59.552C124.273 57.712 125.345 56.896 126.801 56.896V55.872C125.601 55.872 124.769 56.352 124.273 57.328V56ZM132.26 55.808C131.028 55.808 130.036 56.208 129.252 57.008C128.468 57.808 128.084 58.8 128.084 60C128.084 61.216 128.484 62.224 129.268 63.008C130.052 63.792 131.076 64.192 132.34 64.192C133.892 64.192 135.156 63.488 135.86 62.352L134.932 61.808C134.484 62.624 133.572 63.168 132.356 63.168C130.644 63.168 129.38 62.144 129.172 60.528H136.196C136.212 60.32 136.228 60.144 136.228 60.032C136.228 58.896 135.86 57.904 135.124 57.072C134.404 56.224 133.444 55.808 132.26 55.808ZM132.26 56.832C132.98 56.832 133.62 57.072 134.164 57.536C134.708 58 135.028 58.656 135.14 59.504H129.172C129.38 57.92 130.596 56.832 132.26 56.832ZM144.339 58.096C144.339 57.28 145.107 56.832 146.019 56.832C146.995 56.832 147.635 57.2 147.939 57.952L148.819 57.44C148.355 56.432 147.315 55.808 146.019 55.808C145.235 55.808 144.579 56.032 144.051 56.464C143.539 56.896 143.283 57.44 143.283 58.096C143.283 59.824 144.963 60.192 146.307 60.528C147.219 60.768 147.955 61.168 147.955 61.888C147.955 62.768 147.155 63.168 146.115 63.168C145.043 63.168 144.227 62.656 143.923 61.824L143.027 62.352C143.459 63.44 144.579 64.192 146.115 64.192C146.963 64.192 147.667 63.984 148.195 63.552C148.739 63.12 149.011 62.576 149.011 61.888C149.011 60.16 147.331 59.792 145.987 59.456C145.075 59.216 144.339 58.816 144.339 58.096ZM158.043 62.992C158.859 62.176 159.275 61.184 159.275 60C159.275 58.816 158.859 57.824 158.043 57.024C157.227 56.208 156.235 55.808 155.067 55.808C153.899 55.808 152.891 56.208 152.075 57.024C151.259 57.824 150.859 58.816 150.859 60C150.859 61.184 151.259 62.176 152.075 62.992C152.891 63.792 153.899 64.192 155.067 64.192C156.235 64.192 157.227 63.792 158.043 62.992ZM152.827 62.256C152.219 61.632 151.915 60.88 151.915 60C151.915 59.12 152.219 58.368 152.827 57.76C153.435 57.136 154.187 56.832 155.067 56.832C155.947 56.832 156.699 57.136 157.307 57.76C157.915 58.368 158.219 59.12 158.219 60C158.219 60.88 157.915 61.632 157.307 62.256C156.699 62.864 155.947 63.168 155.067 63.168C154.187 63.168 153.435 62.864 152.827 62.256ZM162.898 64V52.32H161.842V64H162.898ZM166.995 64V52.32H165.939V64H166.995ZM171.108 54.08C171.412 53.776 171.412 53.296 171.108 52.992C170.804 52.688 170.324 52.688 170.02 52.992C169.716 53.296 169.716 53.776 170.02 54.08C170.324 54.384 170.804 54.384 171.108 54.08ZM171.092 64V56H170.036V64H171.092ZM177.86 64.192C179.412 64.192 180.788 63.392 181.444 62.112L180.564 61.6C180.036 62.56 179.06 63.168 177.86 63.168C176.98 63.168 176.228 62.864 175.62 62.256C175.012 61.632 174.708 60.88 174.708 60C174.708 59.12 175.012 58.368 175.62 57.76C176.228 57.136 176.98 56.832 177.86 56.832C179.06 56.832 180.068 57.44 180.5 58.4L181.364 57.904C180.788 56.624 179.444 55.808 177.86 55.808C176.66 55.808 175.652 56.208 174.852 57.024C174.052 57.824 173.652 58.816 173.652 60C173.652 61.184 174.052 62.176 174.852 62.992C175.652 63.792 176.66 64.192 177.86 64.192ZM184.833 54.08C185.137 53.776 185.137 53.296 184.833 52.992C184.529 52.688 184.049 52.688 183.745 52.992C183.441 53.296 183.441 53.776 183.745 54.08C184.049 54.384 184.529 54.384 184.833 54.08ZM184.817 64V56H183.761V64H184.817ZM192.098 56H189.794V53.76L188.738 54.08V56H187.058V57.024H188.738V61.872C188.738 63.728 189.858 64.336 192.098 64V63.072C190.562 63.136 189.794 63.248 189.794 61.872V57.024H192.098V56ZM200.29 60.192C200.29 62.224 199.234 63.168 197.698 63.168C196.306 63.168 195.522 62.336 195.522 60.912V56H194.466V60.912C194.466 62.912 195.666 64.192 197.602 64.192C198.802 64.192 199.698 63.712 200.29 62.752V64H201.346V56H200.29V60.192ZM211.259 57.568C210.523 56.4 209.451 55.808 208.027 55.808C206.891 55.808 205.915 56.208 205.099 57.024C204.299 57.84 203.899 58.832 203.899 60C203.899 61.168 204.299 62.16 205.099 62.976C205.915 63.792 206.891 64.192 208.027 64.192C209.451 64.192 210.523 63.6 211.259 62.432V64H212.315V52.8H211.259V57.568ZM205.867 62.256C205.259 61.632 204.955 60.88 204.955 60C204.955 59.12 205.259 58.368 205.867 57.76C206.475 57.136 207.227 56.832 208.107 56.832C208.987 56.832 209.739 57.136 210.347 57.76C210.955 58.368 211.259 59.12 211.259 60C211.259 60.88 210.955 61.632 210.347 62.256C209.739 62.864 208.987 63.168 208.107 63.168C207.227 63.168 206.475 62.864 205.867 62.256ZM216.423 54.08C216.727 53.776 216.727 53.296 216.423 52.992C216.119 52.688 215.639 52.688 215.335 52.992C215.031 53.296 215.031 53.776 215.335 54.08C215.639 54.384 216.119 54.384 216.423 54.08ZM216.407 64V56H215.351V64H216.407ZM223.192 55.808C221.992 55.808 221.096 56.288 220.504 57.248V56H219.448V64H220.504V59.808C220.504 57.776 221.56 56.832 223.096 56.832C224.488 56.832 225.272 57.664 225.272 59.088V64H226.328V59.088C226.328 57.088 225.128 55.808 223.192 55.808ZM240.674 62.992C241.49 62.176 241.906 61.184 241.906 60C241.906 58.816 241.49 57.824 240.674 57.024C239.858 56.208 238.866 55.808 237.698 55.808C236.53 55.808 235.522 56.208 234.706 57.024C233.89 57.824 233.49 58.816 233.49 60C233.49 61.184 233.89 62.176 234.706 62.992C235.522 63.792 236.53 64.192 237.698 64.192C238.866 64.192 239.858 63.792 240.674 62.992ZM235.458 62.256C234.85 61.632 234.546 60.88 234.546 60C234.546 59.12 234.85 58.368 235.458 57.76C236.066 57.136 236.818 56.832 237.698 56.832C238.578 56.832 239.33 57.136 239.938 57.76C240.546 58.368 240.85 59.12 240.85 60C240.85 60.88 240.546 61.632 239.938 62.256C239.33 62.864 238.578 63.168 237.698 63.168C236.818 63.168 236.066 62.864 235.458 62.256ZM251.353 57.568C250.617 56.4 249.545 55.808 248.121 55.808C246.985 55.808 246.009 56.208 245.193 57.024C244.393 57.84 243.993 58.832 243.993 60C243.993 61.168 244.393 62.16 245.193 62.976C246.009 63.792 246.985 64.192 248.121 64.192C249.545 64.192 250.617 63.6 251.353 62.432V64H252.409V52.8H251.353V57.568ZM245.961 62.256C245.353 61.632 245.049 60.88 245.049 60C245.049 59.12 245.353 58.368 245.961 57.76C246.569 57.136 247.321 56.832 248.201 56.832C249.081 56.832 249.833 57.136 250.441 57.76C251.049 58.368 251.353 59.12 251.353 60C251.353 60.88 251.049 61.632 250.441 62.256C249.833 62.864 249.081 63.168 248.201 63.168C247.321 63.168 246.569 62.864 245.961 62.256ZM256.517 54.08C256.821 53.776 256.821 53.296 256.517 52.992C256.213 52.688 255.733 52.688 255.429 52.992C255.125 53.296 255.125 53.776 255.429 54.08C255.733 54.384 256.213 54.384 256.517 54.08ZM256.501 64V56H255.445V64H256.501ZM266.246 62.992C267.062 62.176 267.478 61.184 267.478 60C267.478 58.816 267.062 57.824 266.246 57.024C265.43 56.208 264.438 55.808 263.27 55.808C262.102 55.808 261.094 56.208 260.278 57.024C259.462 57.824 259.062 58.816 259.062 60C259.062 61.184 259.462 62.176 260.278 62.992C261.094 63.792 262.102 64.192 263.27 64.192C264.438 64.192 265.43 63.792 266.246 62.992ZM261.03 62.256C260.422 61.632 260.118 60.88 260.118 60C260.118 59.12 260.422 58.368 261.03 57.76C261.638 57.136 262.39 56.832 263.27 56.832C264.15 56.832 264.902 57.136 265.51 57.76C266.118 58.368 266.422 59.12 266.422 60C266.422 60.88 266.118 61.632 265.51 62.256C264.902 62.864 264.15 63.168 263.27 63.168C262.39 63.168 261.638 62.864 261.03 62.256ZM279.085 56H276.781V53.76L275.725 54.08V56H274.045V57.024H275.725V61.872C275.725 63.728 276.845 64.336 279.085 64V63.072C277.549 63.136 276.781 63.248 276.781 61.872V57.024H279.085V56ZM284.857 55.808C283.625 55.808 282.633 56.208 281.849 57.008C281.065 57.808 280.681 58.8 280.681 60C280.681 61.216 281.081 62.224 281.865 63.008C282.649 63.792 283.673 64.192 284.937 64.192C286.489 64.192 287.753 63.488 288.457 62.352L287.529 61.808C287.081 62.624 286.169 63.168 284.953 63.168C283.241 63.168 281.977 62.144 281.769 60.528H288.793C288.809 60.32 288.825 60.144 288.825 60.032C288.825 58.896 288.457 57.904 287.721 57.072C287.001 56.224 286.041 55.808 284.857 55.808ZM284.857 56.832C285.577 56.832 286.217 57.072 286.761 57.536C287.305 58 287.625 58.656 287.737 59.504H281.769C281.977 57.92 283.193 56.832 284.857 56.832ZM292.36 64V52.32H291.304V64H292.36ZM296.457 64V52.32H295.401V64H296.457ZM305.13 60.192C305.13 62.224 304.074 63.168 302.538 63.168C301.146 63.168 300.362 62.336 300.362 60.912V56H299.306V60.912C299.306 62.912 300.506 64.192 302.442 64.192C303.642 64.192 304.538 63.712 305.13 62.752V64H306.186V56H305.13V60.192ZM310.052 58.096C310.052 57.28 310.82 56.832 311.732 56.832C312.708 56.832 313.348 57.2 313.652 57.952L314.532 57.44C314.068 56.432 313.028 55.808 311.732 55.808C310.948 55.808 310.292 56.032 309.764 56.464C309.252 56.896 308.996 57.44 308.996 58.096C308.996 59.824 310.676 60.192 312.02 60.528C312.932 60.768 313.668 61.168 313.668 61.888C313.668 62.768 312.868 63.168 311.828 63.168C310.756 63.168 309.94 62.656 309.636 61.824L308.74 62.352C309.172 63.44 310.292 64.192 311.828 64.192C312.676 64.192 313.38 63.984 313.908 63.552C314.452 63.12 314.724 62.576 314.724 61.888C314.724 60.16 313.044 59.792 311.7 59.456C310.788 59.216 310.052 58.816 310.052 58.096ZM325.782 55.808C324.55 55.808 323.558 56.208 322.774 57.008C321.99 57.808 321.606 58.8 321.606 60C321.606 61.216 322.006 62.224 322.79 63.008C323.574 63.792 324.598 64.192 325.862 64.192C327.414 64.192 328.678 63.488 329.382 62.352L328.454 61.808C328.006 62.624 327.094 63.168 325.878 63.168C324.166 63.168 322.902 62.144 322.694 60.528H329.718C329.734 60.32 329.75 60.144 329.75 60.032C329.75 58.896 329.382 57.904 328.646 57.072C327.926 56.224 326.966 55.808 325.782 55.808ZM325.782 56.832C326.502 56.832 327.142 57.072 327.686 57.536C328.23 58 328.55 58.656 328.662 59.504H322.694C322.902 57.92 324.118 56.832 325.782 56.832ZM333.285 64V52.32H332.229V64H333.285ZM337.398 54.08C337.702 53.776 337.702 53.296 337.398 52.992C337.094 52.688 336.614 52.688 336.31 52.992C336.006 53.296 336.006 53.776 336.31 54.08C336.614 54.384 337.094 54.384 337.398 54.08ZM337.382 64V56H336.326V64H337.382ZM344.663 56H342.359V53.76L341.303 54.08V56H339.623V57.024H341.303V61.872C341.303 63.728 342.423 64.336 344.663 64V63.072C343.127 63.136 342.359 63.248 342.359 61.872V57.024H344.663V56ZM348.567 63.904C348.903 63.568 348.903 62.992 348.567 62.656C348.231 62.32 347.655 62.32 347.319 62.656C346.983 62.992 346.983 63.568 347.319 63.904C347.655 64.24 348.231 64.24 348.567 63.904Z" fill="#1F3F68"/>
</svg>
