<svg width="256" height="46" viewBox="0 0 256 46" fill="none" xmlns="http://www.w3.org/2000/svg">
<path d="M11.34 0.999999L7.1 8L2.88 0.999999H0.4V15H2.7V5L6.96 12.06H7.24L11.5 5.02V15H13.8V0.999999H11.34ZM25.3714 6.42C24.5514 5.3 23.3914 4.74 21.8714 4.74C20.4914 4.74 19.3314 5.24 18.3514 6.26C17.3714 7.28 16.8914 8.52 16.8914 10C16.8914 11.46 17.3714 12.72 18.3514 13.74C19.3314 14.76 20.4914 15.26 21.8714 15.26C23.3914 15.26 24.5514 14.7 25.3714 13.56V15H27.5314V5H25.3714V6.42ZM19.9514 12.3C19.3514 11.68 19.0514 10.92 19.0514 10C19.0514 9.08 19.3514 8.32 19.9514 7.72C20.5514 7.1 21.3114 6.8 22.2114 6.8C23.1114 6.8 23.8714 7.1 24.4714 7.72C25.0714 8.32 25.3714 9.08 25.3714 10C25.3714 10.92 25.0714 11.68 24.4714 12.3C23.8714 12.9 23.1114 13.2 22.2114 13.2C21.3114 13.2 20.5514 12.9 19.9514 12.3ZM35.3291 9.9L39.7291 5H37.0891L33.2091 9.42V0.999999H31.0491V15H33.2091V10.38L37.3091 15H39.8891L35.3291 9.9ZM51.2013 10.92C51.2613 10.54 51.2813 10.24 51.2813 10.02C51.2813 8.56 50.8013 7.3 49.8613 6.28C48.9213 5.26 47.7213 4.74 46.2613 4.74C44.7213 4.74 43.4413 5.24 42.4613 6.26C41.4813 7.26 40.9813 8.5 40.9813 10C40.9813 11.52 41.4813 12.78 42.4813 13.78C43.4813 14.76 44.8013 15.26 46.4213 15.26C48.3613 15.26 49.8213 14.54 50.8013 13.08L49.0213 12.04C48.4413 12.86 47.5813 13.28 46.4413 13.28C44.7813 13.28 43.5613 12.44 43.2413 10.92H51.2013ZM43.2212 9.16C43.5213 7.64 44.6413 6.7 46.2413 6.7C47.6613 6.7 48.8013 7.54 49.1013 9.16H43.2212ZM68.4619 0.999999L65.0619 7.2L61.6419 0.999999H59.0219L63.9019 9.44V15H66.2019V9.44L71.0819 0.999999H68.4619ZM76.1753 15.26C77.6553 15.26 78.8953 14.76 79.9153 13.74C80.9353 12.72 81.4553 11.48 81.4553 10C81.4553 8.52 80.9353 7.28 79.9153 6.26C78.8953 5.24 77.6553 4.74 76.1753 4.74C74.7153 4.74 73.4553 5.24 72.4353 6.26C71.4153 7.28 70.8953 8.52 70.8953 10C70.8953 11.48 71.4153 12.72 72.4353 13.74C73.4553 14.76 74.7153 15.26 76.1753 15.26ZM73.9553 12.26C73.3553 11.66 73.0553 10.9 73.0553 10C73.0553 9.1 73.3553 8.34 73.9553 7.74C74.5553 7.14 75.2953 6.84 76.1753 6.84C77.0553 6.84 77.7953 7.14 78.3953 7.74C78.9953 8.34 79.2953 9.1 79.2953 10C79.2953 10.9 78.9953 11.66 78.3953 12.26C77.7953 12.86 77.0553 13.16 76.1753 13.16C75.2953 13.16 74.5553 12.86 73.9553 12.26ZM91.1484 10.36C91.1484 12.3 90.1284 13.24 88.6084 13.24C87.2284 13.24 86.3684 12.42 86.3684 10.92V5H84.2084V11.14C84.2084 13.7 85.7484 15.26 88.0484 15.26C89.4684 15.26 90.4884 14.74 91.1484 13.72V15H93.3084V5H91.1484V10.36ZM98.9942 5H96.8342V15H98.9942V9.96C98.9942 8.94 99.2942 8.2 99.9142 7.76C100.534 7.3 101.254 7.1 102.074 7.16V4.82C100.574 4.82 99.5342 5.44 98.9942 6.68V5ZM116.33 4.74C114.81 4.74 113.65 5.3 112.83 6.42V0.999999H110.67V15H112.83V13.56C113.65 14.7 114.81 15.26 116.33 15.26C117.71 15.26 118.87 14.76 119.85 13.74C120.83 12.72 121.31 11.46 121.31 10C121.31 8.52 120.83 7.28 119.85 6.26C118.87 5.24 117.71 4.74 116.33 4.74ZM113.73 12.3C113.13 11.68 112.83 10.92 112.83 10C112.83 9.08 113.13 8.32 113.73 7.72C114.33 7.1 115.09 6.8 115.99 6.8C116.89 6.8 117.65 7.1 118.25 7.72C118.85 8.32 119.15 9.08 119.15 10C119.15 10.92 118.85 11.68 118.25 12.3C117.65 12.9 116.89 13.2 115.99 13.2C115.09 13.2 114.33 12.9 113.73 12.3ZM131.008 10.36C131.008 12.3 129.988 13.24 128.468 13.24C127.088 13.24 126.228 12.42 126.228 10.92V5H124.068V11.14C124.068 13.7 125.608 15.26 127.908 15.26C129.328 15.26 130.348 14.74 131.008 13.72V15H133.168V5H131.008V10.36ZM138.575 7.76C138.575 7.06 139.215 6.7 140.035 6.7C140.935 6.7 141.575 7.08 141.915 7.84L143.735 6.82C143.035 5.52 141.695 4.74 140.035 4.74C138.995 4.74 138.115 5.02 137.415 5.58C136.715 6.14 136.375 6.88 136.375 7.8C136.335 9.9 138.355 10.5 139.855 10.88C140.915 11.14 141.755 11.52 141.755 12.16C141.755 12.9 141.195 13.28 140.055 13.28C138.915 13.28 138.175 12.8 137.835 11.84L135.975 12.92C136.615 14.38 138.075 15.26 140.055 15.26C141.175 15.26 142.095 14.98 142.835 14.44C143.575 13.9 143.955 13.14 143.955 12.18C143.995 10.04 141.995 9.4 140.455 9.06C139.415 8.76 138.575 8.42 138.575 7.76ZM148.777 3.1C149.337 2.54 149.337 1.7 148.797 1.16C148.257 0.599999 147.377 0.599999 146.837 1.16C146.297 1.7 146.297 2.54 146.837 3.1C147.397 3.64 148.237 3.64 148.777 3.1ZM148.897 15V5H146.737V15H148.897ZM157.665 4.74C156.245 4.74 155.225 5.26 154.565 6.28V5H152.405V15H154.565V9.64C154.565 7.7 155.585 6.76 157.105 6.76C158.485 6.76 159.345 7.58 159.345 9.08V15H161.505V8.86C161.505 6.3 159.965 4.74 157.665 4.74ZM174.49 10.92C174.55 10.54 174.57 10.24 174.57 10.02C174.57 8.56 174.09 7.3 173.15 6.28C172.21 5.26 171.01 4.74 169.55 4.74C168.01 4.74 166.73 5.24 165.75 6.26C164.77 7.26 164.27 8.5 164.27 10C164.27 11.52 164.77 12.78 165.77 13.78C166.77 14.76 168.09 15.26 169.71 15.26C171.65 15.26 173.11 14.54 174.09 13.08L172.31 12.04C171.73 12.86 170.87 13.28 169.73 13.28C168.07 13.28 166.85 12.44 166.53 10.92H174.49ZM166.51 9.16C166.81 7.64 167.93 6.7 169.53 6.7C170.95 6.7 172.09 7.54 172.39 9.16H166.51ZM179.02 7.76C179.02 7.06 179.66 6.7 180.48 6.7C181.38 6.7 182.02 7.08 182.36 7.84L184.18 6.82C183.48 5.52 182.14 4.74 180.48 4.74C179.44 4.74 178.56 5.02 177.86 5.58C177.16 6.14 176.82 6.88 176.82 7.8C176.78 9.9 178.8 10.5 180.3 10.88C181.36 11.14 182.2 11.52 182.2 12.16C182.2 12.9 181.64 13.28 180.5 13.28C179.36 13.28 178.62 12.8 178.28 11.84L176.42 12.92C177.06 14.38 178.52 15.26 180.5 15.26C181.62 15.26 182.54 14.98 183.28 14.44C184.02 13.9 184.4 13.14 184.4 12.18C184.44 10.04 182.44 9.4 180.9 9.06C179.86 8.76 179.02 8.42 179.02 7.76ZM188.634 7.76C188.634 7.06 189.274 6.7 190.094 6.7C190.994 6.7 191.634 7.08 191.974 7.84L193.794 6.82C193.094 5.52 191.754 4.74 190.094 4.74C189.054 4.74 188.174 5.02 187.474 5.58C186.774 6.14 186.434 6.88 186.434 7.8C186.394 9.9 188.414 10.5 189.914 10.88C190.974 11.14 191.814 11.52 191.814 12.16C191.814 12.9 191.254 13.28 190.114 13.28C188.974 13.28 188.234 12.8 187.894 11.84L186.034 12.92C186.674 14.38 188.134 15.26 190.114 15.26C191.234 15.26 192.154 14.98 192.894 14.44C193.634 13.9 194.014 13.14 194.014 12.18C194.054 10.04 192.054 9.4 190.514 9.06C189.474 8.76 188.634 8.42 188.634 7.76ZM201.952 0.999999V3.2H205.912V15H208.212V3.2H212.152V0.999999H201.952ZM217.636 15.26C219.116 15.26 220.356 14.76 221.376 13.74C222.396 12.72 222.916 11.48 222.916 10C222.916 8.52 222.396 7.28 221.376 6.26C220.356 5.24 219.116 4.74 217.636 4.74C216.176 4.74 214.916 5.24 213.896 6.26C212.876 7.28 212.356 8.52 212.356 10C212.356 11.48 212.876 12.72 213.896 13.74C214.916 14.76 216.176 15.26 217.636 15.26ZM215.416 12.26C214.816 11.66 214.516 10.9 214.516 10C214.516 9.1 214.816 8.34 215.416 7.74C216.016 7.14 216.756 6.84 217.636 6.84C218.516 6.84 219.256 7.14 219.856 7.74C220.456 8.34 220.756 9.1 220.756 10C220.756 10.9 220.456 11.66 219.856 12.26C219.256 12.86 218.516 13.16 217.636 13.16C216.756 13.16 216.016 12.86 215.416 12.26ZM240.249 7.74C241.189 7.04 241.669 6.1 241.669 4.88C241.669 3.78 241.269 2.86 240.469 2.12C239.689 1.38 238.709 0.999999 237.569 0.999999H232.009V15H238.009C239.189 15 240.169 14.62 240.989 13.86C241.809 13.1 242.209 12.14 242.209 11C242.209 9.54 241.469 8.38 240.249 7.74ZM237.569 3.16C238.589 3.16 239.369 3.96 239.369 5C239.369 6.04 238.589 6.84 237.569 6.84H234.309V3.16H237.569ZM234.309 12.84V8.92H238.009C239.069 8.92 239.909 9.78 239.909 10.88C239.909 11.98 239.069 12.84 238.009 12.84H234.309ZM254.834 10.92C254.894 10.54 254.914 10.24 254.914 10.02C254.914 8.56 254.434 7.3 253.494 6.28C252.554 5.26 251.354 4.74 249.894 4.74C248.354 4.74 247.074 5.24 246.094 6.26C245.114 7.26 244.614 8.5 244.614 10C244.614 11.52 245.114 12.78 246.114 13.78C247.114 14.76 248.434 15.26 250.054 15.26C251.994 15.26 253.454 14.54 254.434 13.08L252.654 12.04C252.074 12.86 251.214 13.28 250.074 13.28C248.414 13.28 247.194 12.44 246.874 10.92H254.834ZM246.854 9.16C247.154 7.64 248.274 6.7 249.874 6.7C251.294 6.7 252.434 7.54 252.734 9.16H246.854ZM8.64 37.74C9.58 37.04 10.06 36.1 10.06 34.88C10.06 33.78 9.66 32.86 8.86 32.12C8.08 31.38 7.1 31 5.96 31H0.4V45H6.4C7.58 45 8.56 44.62 9.38 43.86C10.2 43.1 10.6 42.14 10.6 41C10.6 39.54 9.86 38.38 8.64 37.74ZM5.96 33.16C6.98 33.16 7.76 33.96 7.76 35C7.76 36.04 6.98 36.84 5.96 36.84H2.7V33.16H5.96ZM2.7 42.84V38.92H6.4C7.46 38.92 8.3 39.78 8.3 40.88C8.3 41.98 7.46 42.84 6.4 42.84H2.7ZM23.2247 40.92C23.2847 40.54 23.3047 40.24 23.3047 40.02C23.3047 38.56 22.8247 37.3 21.8847 36.28C20.9447 35.26 19.7447 34.74 18.2847 34.74C16.7447 34.74 15.4647 35.24 14.4847 36.26C13.5047 37.26 13.0047 38.5 13.0047 40C13.0047 41.52 13.5047 42.78 14.5047 43.78C15.5047 44.76 16.8247 45.26 18.4447 45.26C20.3847 45.26 21.8447 44.54 22.8247 43.08L21.0447 42.04C20.4647 42.86 19.6047 43.28 18.4647 43.28C16.8047 43.28 15.5847 42.44 15.2647 40.92H23.2247ZM15.2447 39.16C15.5447 37.64 16.6647 36.7 18.2647 36.7C19.6847 36.7 20.8247 37.54 21.1247 39.16H15.2447ZM31.4728 35H28.9928V32.2L26.8328 32.84V35H24.9928V37.08H26.8328V41.88C26.8328 44.5 28.1728 45.4 31.4728 45V43.06C29.8328 43.14 28.9928 43.16 28.9928 41.88V37.08H31.4728V35ZM39.5431 35H37.0631V32.2L34.9031 32.84V35H33.0631V37.08H34.9031V41.88C34.9031 44.5 36.2431 45.4 39.5431 45V43.06C37.9031 43.14 37.0631 43.16 37.0631 41.88V37.08H39.5431V35ZM51.752 40.92C51.812 40.54 51.832 40.24 51.832 40.02C51.832 38.56 51.352 37.3 50.412 36.28C49.472 35.26 48.272 34.74 46.812 34.74C45.272 34.74 43.992 35.24 43.012 36.26C42.032 37.26 41.532 38.5 41.532 40C41.532 41.52 42.032 42.78 43.032 43.78C44.032 44.76 45.352 45.26 46.972 45.26C48.912 45.26 50.372 44.54 51.352 43.08L49.572 42.04C48.992 42.86 48.132 43.28 46.992 43.28C45.332 43.28 44.112 42.44 43.792 40.92H51.752ZM43.772 39.16C44.072 37.64 45.192 36.7 46.792 36.7C48.212 36.7 49.352 37.54 49.652 39.16H43.772ZM56.8927 35H54.7327V45H56.8927V39.96C56.8927 38.94 57.1927 38.2 57.8127 37.76C58.4327 37.3 59.1527 37.1 59.9727 37.16V34.82C58.4727 34.82 57.4327 35.44 56.8927 36.68V35ZM76.9086 31H68.7086V45H71.0086V39.32H76.7086V37.12H71.0086V33.2H76.9086V31ZM87.8402 36.42C87.0202 35.3 85.8602 34.74 84.3402 34.74C82.9602 34.74 81.8002 35.24 80.8202 36.26C79.8402 37.28 79.3602 38.52 79.3602 40C79.3602 41.46 79.8402 42.72 80.8202 43.74C81.8002 44.76 82.9602 45.26 84.3402 45.26C85.8602 45.26 87.0202 44.7 87.8402 43.56V45H90.0002V35H87.8402V36.42ZM82.4202 42.3C81.8202 41.68 81.5202 40.92 81.5202 40C81.5202 39.08 81.8202 38.32 82.4202 37.72C83.0202 37.1 83.7802 36.8 84.6802 36.8C85.5802 36.8 86.3402 37.1 86.9402 37.72C87.5402 38.32 87.8402 39.08 87.8402 40C87.8402 40.92 87.5402 41.68 86.9402 42.3C86.3402 42.9 85.5802 43.2 84.6802 43.2C83.7802 43.2 83.0202 42.9 82.4202 42.3ZM104.438 34.74C103.058 34.74 102.038 35.26 101.378 36.32C100.758 35.26 99.8178 34.74 98.5378 34.74C97.2778 34.74 96.3178 35.22 95.6778 36.2V35H93.5178V45H95.6778V39.4C95.6778 37.66 96.5978 36.76 97.8978 36.76C99.0978 36.76 99.7778 37.56 99.7778 38.94V45H101.938V39.4C101.938 37.64 102.778 36.76 104.118 36.76C105.318 36.76 106.058 37.56 106.058 38.94V45H108.218V38.8C108.218 36.32 106.698 34.74 104.438 34.74ZM116.25 45.26C117.73 45.26 118.97 44.76 119.99 43.74C121.01 42.72 121.53 41.48 121.53 40C121.53 38.52 121.01 37.28 119.99 36.26C118.97 35.24 117.73 34.74 116.25 34.74C114.79 34.74 113.53 35.24 112.51 36.26C111.49 37.28 110.97 38.52 110.97 40C110.97 41.48 111.49 42.72 112.51 43.74C113.53 44.76 114.79 45.26 116.25 45.26ZM114.03 42.26C113.43 41.66 113.13 40.9 113.13 40C113.13 39.1 113.43 38.34 114.03 37.74C114.63 37.14 115.37 36.84 116.25 36.84C117.13 36.84 117.87 37.14 118.47 37.74C119.07 38.34 119.37 39.1 119.37 40C119.37 40.9 119.07 41.66 118.47 42.26C117.87 42.86 117.13 43.16 116.25 43.16C115.37 43.16 114.63 42.86 114.03 42.26ZM131.223 40.36C131.223 42.3 130.203 43.24 128.683 43.24C127.303 43.24 126.443 42.42 126.443 40.92V35H124.283V41.14C124.283 43.7 125.823 45.26 128.123 45.26C129.543 45.26 130.563 44.74 131.223 43.72V45H133.383V35H131.223V40.36ZM138.79 37.76C138.79 37.06 139.43 36.7 140.25 36.7C141.15 36.7 141.79 37.08 142.13 37.84L143.95 36.82C143.25 35.52 141.91 34.74 140.25 34.74C139.21 34.74 138.33 35.02 137.63 35.58C136.93 36.14 136.59 36.88 136.59 37.8C136.55 39.9 138.57 40.5 140.07 40.88C141.13 41.14 141.97 41.52 141.97 42.16C141.97 42.9 141.41 43.28 140.27 43.28C139.13 43.28 138.39 42.8 138.05 41.84L136.19 42.92C136.83 44.38 138.29 45.26 140.27 45.26C141.39 45.26 142.31 44.98 143.05 44.44C143.79 43.9 144.17 43.14 144.17 42.18C144.21 40.04 142.21 39.4 140.67 39.06C139.63 38.76 138.79 38.42 138.79 37.76ZM153.209 45H155.509V31H153.209V45ZM164.426 34.74C163.006 34.74 161.986 35.26 161.326 36.28V35H159.166V45H161.326V39.64C161.326 37.7 162.346 36.76 163.866 36.76C165.246 36.76 166.106 37.58 166.106 39.08V45H168.266V38.86C168.266 36.3 166.726 34.74 164.426 34.74ZM177.732 45H180.032V31H177.732V45ZM188.95 34.74C187.53 34.74 186.51 35.26 185.85 36.28V35H183.69V45H185.85V39.64C185.85 37.7 186.87 36.76 188.39 36.76C189.77 36.76 190.63 37.58 190.63 39.08V45H192.79V38.86C192.79 36.3 191.25 34.74 188.95 34.74ZM201.695 35H199.215V32.2L197.055 32.84V35H195.215V37.08H197.055V41.88C197.055 44.5 198.395 45.4 201.695 45V43.06C200.055 43.14 199.215 43.16 199.215 41.88V37.08H201.695V35ZM213.904 40.92C213.964 40.54 213.984 40.24 213.984 40.02C213.984 38.56 213.504 37.3 212.564 36.28C211.624 35.26 210.424 34.74 208.964 34.74C207.424 34.74 206.144 35.24 205.164 36.26C204.184 37.26 203.684 38.5 203.684 40C203.684 41.52 204.184 42.78 205.184 43.78C206.184 44.76 207.504 45.26 209.124 45.26C211.064 45.26 212.524 44.54 213.504 43.08L211.724 42.04C211.144 42.86 210.284 43.28 209.144 43.28C207.484 43.28 206.264 42.44 205.944 40.92H213.904ZM205.924 39.16C206.224 37.64 207.344 36.7 208.944 36.7C210.364 36.7 211.504 37.54 211.804 39.16H205.924ZM219.045 35H216.885V45H219.045V39.96C219.045 38.94 219.345 38.2 219.965 37.76C220.585 37.3 221.305 37.1 222.125 37.16V34.82C220.625 34.82 219.585 35.44 219.045 36.68V35ZM229.981 34.74C228.561 34.74 227.541 35.26 226.881 36.28V35H224.721V45H226.881V39.64C226.881 37.7 227.901 36.76 229.421 36.76C230.801 36.76 231.661 37.58 231.661 39.08V45H233.821V38.86C233.821 36.3 232.281 34.74 229.981 34.74ZM246.807 40.92C246.867 40.54 246.887 40.24 246.887 40.02C246.887 38.56 246.407 37.3 245.467 36.28C244.527 35.26 243.327 34.74 241.867 34.74C240.327 34.74 239.047 35.24 238.067 36.26C237.087 37.26 236.587 38.5 236.587 40C236.587 41.52 237.087 42.78 238.087 43.78C239.087 44.76 240.407 45.26 242.027 45.26C243.967 45.26 245.427 44.54 246.407 43.08L244.627 42.04C244.047 42.86 243.187 43.28 242.047 43.28C240.387 43.28 239.167 42.44 238.847 40.92H246.807ZM238.827 39.16C239.127 37.64 240.247 36.7 241.847 36.7C243.267 36.7 244.407 37.54 244.707 39.16H238.827ZM255.055 35H252.575V32.2L250.415 32.84V35H248.575V37.08H250.415V41.88C250.415 44.5 251.755 45.4 255.055 45V43.06C253.415 43.14 252.575 43.16 252.575 41.88V37.08H255.055V35Z" fill="#1F3F68"/>
</svg>
