<svg width="224" height="80" viewBox="0 0 224 80" fill="none" xmlns="http://www.w3.org/2000/svg">
<path d="M22.58 22.688C25.136 20.132 26.396 17.036 26.396 13.4C26.396 9.764 25.136 6.668 22.58 4.148C20.06 1.592 16.964 0.331998 13.328 0.331998C9.692 0.331998 6.596 1.592 4.04 4.148C1.52 6.668 0.26 9.764 0.26 13.4C0.26 17.036 1.52 20.132 4.04 22.688C6.596 25.208 9.692 26.468 13.328 26.468C16.964 26.468 20.06 25.208 22.58 22.688ZM6.956 19.88C5.264 18.152 4.4 15.992 4.4 13.4C4.4 10.808 5.264 8.648 6.956 6.956C8.684 5.228 10.808 4.364 13.328 4.364C15.848 4.364 17.972 5.228 19.664 6.956C21.392 8.648 22.256 10.808 22.256 13.4C22.256 15.992 21.392 18.152 19.664 19.88C17.972 21.572 15.848 22.436 13.328 22.436C10.808 22.436 8.684 21.572 6.956 19.88ZM44.0633 17.648C44.0633 21.14 42.2273 22.832 39.4913 22.832C37.0073 22.832 35.4593 21.356 35.4593 18.656V8H31.5713V19.052C31.5713 23.66 34.3433 26.468 38.4833 26.468C41.0393 26.468 42.8753 25.532 44.0633 23.696V26H47.9513V8H44.0633V17.648ZM58.1857 8H54.2977V26H58.1857V16.928C58.1857 15.092 58.7257 13.76 59.8417 12.968C60.9577 12.14 62.2537 11.78 63.7297 11.888V7.676C61.0297 7.676 59.1577 8.792 58.1857 11.024V8ZM94.2144 0.799998H79.4544V26H83.5944V15.776H93.8544V11.816H83.5944V4.76H94.2144V0.799998ZM103.307 4.58C104.315 3.572 104.315 2.06 103.343 1.088C102.371 0.079999 100.787 0.079999 99.8152 1.088C98.8432 2.06 98.8432 3.572 99.8152 4.58C100.823 5.552 102.335 5.552 103.307 4.58ZM103.523 26V8H99.6352V26H103.523ZM119.306 7.532C116.75 7.532 114.914 8.468 113.726 10.304V8H109.838V26H113.726V16.352C113.726 12.86 115.562 11.168 118.298 11.168C120.782 11.168 122.33 12.644 122.33 15.344V26H126.218V14.948C126.218 10.34 123.446 7.532 119.306 7.532ZM135.876 4.58C136.884 3.572 136.884 2.06 135.912 1.088C134.94 0.079999 133.356 0.079999 132.384 1.088C131.412 2.06 131.412 3.572 132.384 4.58C133.392 5.552 134.904 5.552 135.876 4.58ZM136.092 26V8H132.204V26H136.092ZM145.793 12.968C145.793 11.708 146.945 11.06 148.421 11.06C150.041 11.06 151.193 11.744 151.805 13.112L155.081 11.276C153.821 8.936 151.409 7.532 148.421 7.532C146.549 7.532 144.965 8.036 143.705 9.044C142.445 10.052 141.833 11.384 141.833 13.04C141.761 16.82 145.397 17.9 148.097 18.584C150.005 19.052 151.517 19.736 151.517 20.888C151.517 22.22 150.509 22.904 148.457 22.904C146.405 22.904 145.073 22.04 144.461 20.312L141.113 22.256C142.265 24.884 144.893 26.468 148.457 26.468C150.473 26.468 152.129 25.964 153.461 24.992C154.793 24.02 155.477 22.652 155.477 20.924C155.549 17.072 151.949 15.92 149.177 15.308C147.305 14.768 145.793 14.156 145.793 12.968ZM169.952 7.532C167.396 7.532 165.56 8.468 164.372 10.304V0.799998H160.484V26H164.372V16.352C164.372 12.86 166.208 11.168 168.944 11.168C171.428 11.168 172.976 12.644 172.976 15.344V26H176.864V14.948C176.864 10.34 174.092 7.532 169.952 7.532ZM200.238 18.656C200.346 17.972 200.382 17.432 200.382 17.036C200.382 14.408 199.518 12.14 197.826 10.304C196.134 8.468 193.974 7.532 191.346 7.532C188.574 7.532 186.27 8.432 184.506 10.268C182.742 12.068 181.842 14.3 181.842 17C181.842 19.736 182.742 22.004 184.542 23.804C186.342 25.568 188.718 26.468 191.634 26.468C195.126 26.468 197.754 25.172 199.518 22.544L196.314 20.672C195.27 22.148 193.722 22.904 191.67 22.904C188.682 22.904 186.486 21.392 185.91 18.656H200.238ZM185.874 15.488C186.414 12.752 188.43 11.06 191.31 11.06C193.866 11.06 195.918 12.572 196.458 15.488H185.874ZM219.754 10.556C218.278 8.54 216.19 7.532 213.454 7.532C210.97 7.532 208.882 8.432 207.118 10.268C205.354 12.104 204.49 14.336 204.49 17C204.49 19.628 205.354 21.896 207.118 23.732C208.882 25.568 210.97 26.468 213.454 26.468C216.19 26.468 218.278 25.46 219.754 23.408V26H223.642V0.799998H219.754V10.556ZM209.998 21.14C208.918 20.024 208.378 18.656 208.378 17C208.378 15.344 208.918 13.976 209.998 12.896C211.078 11.78 212.446 11.24 214.066 11.24C215.686 11.24 217.054 11.78 218.134 12.896C219.214 13.976 219.754 15.344 219.754 17C219.754 18.656 219.214 20.024 218.134 21.14C217.054 22.22 215.686 22.76 214.066 22.76C212.446 22.76 211.078 22.22 209.998 21.14ZM1.52 46.8V72H5.66V63.36H10.808C13.184 63.36 15.164 62.568 16.748 60.984C18.368 59.364 19.16 57.42 19.16 55.08C19.16 52.74 18.368 50.76 16.748 49.176C15.164 47.592 13.184 46.8 10.808 46.8H1.52ZM5.66 59.472V50.688H10.808C13.256 50.688 15.02 52.524 15.02 55.08C15.02 57.636 13.256 59.472 10.808 59.472H5.66ZM27.8388 54H23.9508V72H27.8388V62.928C27.8388 61.092 28.3788 59.76 29.4948 58.968C30.6108 58.14 31.9068 57.78 33.3828 57.888V53.676C30.6828 53.676 28.8108 54.792 27.8388 57.024V54ZM45.7077 72.468C48.3717 72.468 50.6037 71.568 52.4397 69.732C54.2757 67.896 55.2117 65.664 55.2117 63C55.2117 60.336 54.2757 58.104 52.4397 56.268C50.6037 54.432 48.3717 53.532 45.7077 53.532C43.0797 53.532 40.8117 54.432 38.9757 56.268C37.1397 58.104 36.2037 60.336 36.2037 63C36.2037 65.664 37.1397 67.896 38.9757 69.732C40.8117 71.568 43.0797 72.468 45.7077 72.468ZM41.7117 67.068C40.6317 65.988 40.0917 64.62 40.0917 63C40.0917 61.38 40.6317 60.012 41.7117 58.932C42.7917 57.852 44.1237 57.312 45.7077 57.312C47.2917 57.312 48.6237 57.852 49.7037 58.932C50.7837 60.012 51.3237 61.38 51.3237 63C51.3237 64.62 50.7837 65.988 49.7037 67.068C48.6237 68.148 47.2917 68.688 45.7077 68.688C44.1237 68.688 42.7917 68.148 41.7117 67.068ZM64.3209 50.58C65.3289 49.572 65.3289 48.06 64.3209 47.088C63.3489 46.08 61.8369 46.08 60.8289 47.088C59.8569 48.06 59.8569 49.572 60.8289 50.58C61.8369 51.552 63.3489 51.552 64.3209 50.58ZM60.6489 72.72C60.6489 75.204 59.5689 76.176 57.1569 75.924V79.668C62.0889 80.028 64.5369 77.724 64.5369 72.72V54H60.6489V72.72ZM88.2583 64.656C88.3663 63.972 88.4023 63.432 88.4023 63.036C88.4023 60.408 87.5383 58.14 85.8463 56.304C84.1543 54.468 81.9943 53.532 79.3663 53.532C76.5943 53.532 74.2903 54.432 72.5263 56.268C70.7623 58.068 69.8623 60.3 69.8623 63C69.8623 65.736 70.7623 68.004 72.5623 69.804C74.3623 71.568 76.7383 72.468 79.6543 72.468C83.1463 72.468 85.7743 71.172 87.5383 68.544L84.3343 66.672C83.2903 68.148 81.7423 68.904 79.6903 68.904C76.7023 68.904 74.5063 67.392 73.9303 64.656H88.2583ZM73.8943 61.488C74.4343 58.752 76.4503 57.06 79.3303 57.06C81.8863 57.06 83.9383 58.572 84.4783 61.488H73.8943ZM102.014 72.468C105.506 72.468 108.566 70.668 110.114 67.788L106.766 65.88C105.902 67.572 104.102 68.652 101.978 68.652C100.394 68.652 99.062 68.112 97.982 67.032C96.938 65.952 96.398 64.62 96.398 63C96.398 61.38 96.938 60.048 97.982 58.968C99.062 57.888 100.394 57.348 101.978 57.348C104.138 57.348 105.866 58.392 106.694 60.12L110.042 58.176C108.602 55.332 105.506 53.532 102.014 53.532C99.314 53.532 97.046 54.432 95.21 56.268C93.41 58.068 92.51 60.3 92.51 63C92.51 65.664 93.41 67.896 95.21 69.732C97.046 71.568 99.314 72.468 102.014 72.468ZM124.768 54H120.304V48.96L116.416 50.112V54H113.104V57.744H116.416V66.384C116.416 71.1 118.828 72.72 124.768 72V68.508C121.816 68.652 120.304 68.688 120.304 66.384V57.744H124.768V54Z" fill="#1F3F68"/>
</svg>
