<svg width="122" height="16" viewBox="0 0 122 16" fill="none" xmlns="http://www.w3.org/2000/svg">
<path d="M4.26531 12.192C5.40131 12.192 6.31331 11.904 7.00131 11.344C7.68931 10.768 8.04131 10 8.04131 9.056C8.04131 8.48 7.84931 7.952 7.64131 7.616C7.44931 7.248 6.88931 6.864 6.56931 6.672C6.40931 6.56 6.15331 6.448 5.81731 6.32C5.48131 6.176 5.22531 6.08 5.04931 6.032L4.18531 5.728C3.30531 5.44 2.66531 5.152 2.28131 4.88C1.89731 4.608 1.70531 4.192 1.70531 3.632C1.70531 2.416 2.63331 1.696 4.02531 1.696C5.35331 1.696 6.26531 2.32 6.77731 3.552L7.72131 3.024C7.09731 1.616 5.76931 0.608 4.02531 0.608C3.04931 0.608 2.23331 0.879999 1.57731 1.44C0.921313 1.984 0.585313 2.736 0.585313 3.68C0.585313 4.656 1.01731 5.392 1.86531 5.904C2.23331 6.144 3.00131 6.448 4.16931 6.832C5.14531 7.152 5.84931 7.456 6.28131 7.76C6.71331 8.064 6.92131 8.496 6.92131 9.088C6.92131 10.304 5.94531 11.104 4.28131 11.104C2.56931 11.104 1.46531 10.288 1.06531 8.896L0.105313 9.456C0.681313 11.168 2.21731 12.192 4.26531 12.192ZM14.2963 3.808C13.0643 3.808 12.0723 4.208 11.2883 5.008C10.5043 5.808 10.1203 6.8 10.1203 8C10.1203 9.216 10.5203 10.224 11.3043 11.008C12.0883 11.792 13.1123 12.192 14.3763 12.192C15.9283 12.192 17.1923 11.488 17.8963 10.352L16.9683 9.808C16.5203 10.624 15.6083 11.168 14.3923 11.168C12.6803 11.168 11.4163 10.144 11.2083 8.528H18.2323C18.2483 8.32 18.2643 8.144 18.2643 8.032C18.2643 6.896 17.8963 5.904 17.1603 5.072C16.4403 4.224 15.4803 3.808 14.2963 3.808ZM14.2963 4.832C15.0163 4.832 15.6563 5.072 16.2003 5.536C16.7443 6 17.0643 6.656 17.1763 7.504H11.2083C11.4163 5.92 12.6323 4.832 14.2963 4.832ZM24.2801 3.808C23.0481 3.808 22.0561 4.208 21.2721 5.008C20.4881 5.808 20.1041 6.8 20.1041 8C20.1041 9.216 20.5041 10.224 21.2881 11.008C22.0721 11.792 23.0961 12.192 24.3601 12.192C25.9121 12.192 27.1761 11.488 27.8801 10.352L26.9521 9.808C26.5041 10.624 25.5921 11.168 24.3761 11.168C22.6641 11.168 21.4001 10.144 21.1921 8.528H28.2161C28.2321 8.32 28.2481 8.144 28.2481 8.032C28.2481 6.896 27.8801 5.904 27.1441 5.072C26.4241 4.224 25.4641 3.808 24.2801 3.808ZM24.2801 4.832C25.0001 4.832 25.6401 5.072 26.1841 5.536C26.7281 6 27.0481 6.656 27.1601 7.504H21.1921C21.4001 5.92 22.6161 4.832 24.2801 4.832ZM44.6318 10.512C45.7518 9.376 46.3118 8.016 46.3118 6.4C46.3118 4.784 45.7518 3.424 44.6318 2.304C43.5118 1.168 42.1358 0.608 40.5198 0.608C38.9038 0.608 37.5278 1.168 36.4078 2.304C35.2878 3.424 34.7278 4.784 34.7278 6.4C34.7278 8.016 35.2878 9.376 36.4078 10.512C37.5278 11.632 38.9038 12.192 40.5198 12.192C42.1358 12.192 43.5118 11.632 44.6318 10.512ZM37.1918 9.744C36.2958 8.832 35.8478 7.712 35.8478 6.4C35.8478 5.088 36.2958 3.984 37.1918 3.072C38.0878 2.16 39.1918 1.696 40.5198 1.696C41.8478 1.696 42.9518 2.16 43.8478 3.072C44.7438 3.984 45.1918 5.088 45.1918 6.4C45.1918 7.712 44.7438 8.832 43.8478 9.744C42.9518 10.656 41.8478 11.104 40.5198 11.104C39.1918 11.104 38.0878 10.656 37.1918 9.744ZM54.4173 8.192C54.4173 10.224 53.3613 11.168 51.8253 11.168C50.4333 11.168 49.6493 10.336 49.6493 8.912V4H48.5933V8.912C48.5933 10.912 49.7933 12.192 51.7293 12.192C52.9293 12.192 53.8253 11.712 54.4173 10.752V12H55.4733V4H54.4173V8.192ZM59.4032 4H58.3472V12H59.4032V7.552C59.4032 5.712 60.4752 4.896 61.9312 4.896V3.872C60.7312 3.872 59.8992 4.352 59.4032 5.328V4ZM68.8184 0.799999V12H69.9384V7.84H72.8184C73.8264 7.84 74.6584 7.504 75.3304 6.832C76.0024 6.16 76.3384 5.328 76.3384 4.32C76.3384 3.312 76.0024 2.48 75.3304 1.808C74.6584 1.136 73.8264 0.799999 72.8184 0.799999H68.8184ZM69.9384 6.784V1.856H72.8184C73.5064 1.856 74.0824 2.096 74.5304 2.56C74.9944 3.024 75.2184 3.6 75.2184 4.32C75.2184 5.04 74.9944 5.632 74.5304 6.096C74.0824 6.56 73.5064 6.784 72.8184 6.784H69.9384ZM79.6357 4H78.5797V12H79.6357V7.552C79.6357 5.712 80.7077 4.896 82.1637 4.896V3.872C80.9637 3.872 80.1317 4.352 79.6357 5.328V4ZM90.4706 10.992C91.2866 10.176 91.7026 9.184 91.7026 8C91.7026 6.816 91.2866 5.824 90.4706 5.024C89.6546 4.208 88.6626 3.808 87.4946 3.808C86.3266 3.808 85.3186 4.208 84.5026 5.024C83.6866 5.824 83.2866 6.816 83.2866 8C83.2866 9.184 83.6866 10.176 84.5026 10.992C85.3186 11.792 86.3266 12.192 87.4946 12.192C88.6626 12.192 89.6546 11.792 90.4706 10.992ZM85.2546 10.256C84.6466 9.632 84.3426 8.88 84.3426 8C84.3426 7.12 84.6466 6.368 85.2546 5.76C85.8626 5.136 86.6146 4.832 87.4946 4.832C88.3746 4.832 89.1266 5.136 89.7346 5.76C90.3426 6.368 90.6466 7.12 90.6466 8C90.6466 8.88 90.3426 9.632 89.7346 10.256C89.1266 10.864 88.3746 11.168 87.4946 11.168C86.6146 11.168 85.8626 10.864 85.2546 10.256ZM94.2433 0.992C93.9393 1.296 93.9393 1.776 94.2433 2.08C94.5473 2.384 95.0273 2.384 95.3313 2.08C95.6353 1.776 95.6353 1.296 95.3313 0.992C95.0273 0.688 94.5473 0.688 94.2433 0.992ZM94.2593 12.64C94.2593 14 93.6993 14.496 92.4353 14.368V15.392C94.2753 15.568 95.3153 14.56 95.3153 12.64V4H94.2593V12.64ZM101.899 3.808C100.667 3.808 99.6748 4.208 98.8908 5.008C98.1068 5.808 97.7228 6.8 97.7228 8C97.7228 9.216 98.1228 10.224 98.9068 11.008C99.6908 11.792 100.715 12.192 101.979 12.192C103.531 12.192 104.795 11.488 105.499 10.352L104.571 9.808C104.123 10.624 103.211 11.168 101.995 11.168C100.283 11.168 99.0188 10.144 98.8108 8.528H105.835C105.851 8.32 105.867 8.144 105.867 8.032C105.867 6.896 105.499 5.904 104.763 5.072C104.043 4.224 103.083 3.808 101.899 3.808ZM101.899 4.832C102.619 4.832 103.259 5.072 103.803 5.536C104.347 6 104.667 6.656 104.779 7.504H98.8108C99.0188 5.92 100.235 4.832 101.899 4.832ZM111.915 12.192C113.467 12.192 114.843 11.392 115.499 10.112L114.619 9.6C114.091 10.56 113.115 11.168 111.915 11.168C111.035 11.168 110.283 10.864 109.675 10.256C109.067 9.632 108.763 8.88 108.763 8C108.763 7.12 109.067 6.368 109.675 5.76C110.283 5.136 111.035 4.832 111.915 4.832C113.115 4.832 114.123 5.44 114.555 6.4L115.419 5.904C114.843 4.624 113.499 3.808 111.915 3.808C110.715 3.808 109.707 4.208 108.907 5.024C108.107 5.824 107.707 6.816 107.707 8C107.707 9.184 108.107 10.176 108.907 10.992C109.707 11.792 110.715 12.192 111.915 12.192ZM121.895 4H119.591V1.76L118.535 2.08V4H116.855V5.024H118.535V9.872C118.535 11.728 119.655 12.336 121.895 12V11.072C120.359 11.136 119.591 11.248 119.591 9.872V5.024H121.895V4Z" fill="white"/>
</svg>
