<svg width="338" height="22" viewBox="0 0 338 22" fill="none" xmlns="http://www.w3.org/2000/svg">
<path d="M7.428 21.364C9.444 21.364 11.068 20.86 12.328 19.852C13.588 18.816 14.204 17.444 14.204 15.736C14.204 14.504 13.924 13.496 13.224 12.796C12.748 12.236 12.496 11.928 11.712 11.508C10.956 11.088 10.732 10.948 9.752 10.584C9.276 10.388 8.94 10.276 8.716 10.192L7.568 9.828C6.056 9.352 4.992 8.876 4.376 8.428C3.76 7.98 3.452 7.336 3.452 6.468C3.452 4.676 4.88 3.556 7.008 3.556C9.136 3.556 10.62 4.564 11.46 6.58L13.644 5.32C12.496 2.744 10.116 1.036 7.008 1.036C5.3 1.036 3.844 1.54 2.64 2.548C1.436 3.528 0.848 4.872 0.848 6.58C0.848 8.008 1.436 9.156 2.08 9.856C2.388 10.192 2.864 10.528 3.508 10.864C4.152 11.172 4.712 11.424 5.132 11.592L7.008 12.208C8.66 12.74 9.864 13.216 10.564 13.692C11.264 14.168 11.628 14.868 11.628 15.792C11.628 17.612 10.172 18.816 7.484 18.816C4.768 18.816 3.004 17.64 2.248 15.26L0.00800006 16.548C1.044 19.544 3.76 21.364 7.428 21.364ZM33.5555 6.636C31.5955 6.636 30.1395 7.42 29.1595 9.016C28.2915 7.42 26.9195 6.636 25.0435 6.636C23.2235 6.636 21.8235 7.392 20.8715 8.876V7H18.4355V21H20.8715V13.216C20.8715 10.388 22.4115 8.96 24.4555 8.96C26.2755 8.96 27.4235 10.22 27.4235 12.376V21H29.8595V13.216C29.8595 10.332 31.2035 8.96 33.3035 8.96C35.1795 8.96 36.3835 10.22 36.3835 12.376V21H38.8195V12.292C38.8195 8.82 36.6915 6.636 33.5555 6.636ZM55.1892 9.408C53.9852 7.56 52.2212 6.636 49.8972 6.636C47.9372 6.636 46.2572 7.364 44.8852 8.792C43.5132 10.22 42.8132 11.956 42.8132 14C42.8132 16.044 43.5132 17.808 44.8852 19.236C46.2572 20.664 47.9372 21.364 49.8972 21.364C52.2212 21.364 53.9852 20.44 55.1892 18.592V21H57.6252V7H55.1892V9.408ZM50.2052 19.012C48.8052 19.012 47.6292 18.536 46.6772 17.584C45.7252 16.604 45.2492 15.428 45.2492 14C45.2492 12.572 45.7252 11.396 46.6772 10.444C47.6292 9.464 48.8052 8.988 50.2052 8.988C51.6332 8.988 52.8092 9.464 53.7612 10.444C54.7132 11.396 55.1892 12.572 55.1892 14C55.1892 15.428 54.7132 16.604 53.7612 17.584C52.8092 18.536 51.6332 19.012 50.2052 19.012ZM65.152 7H62.716V21H65.152V13.58C65.152 12.04 65.572 10.948 66.44 10.248C67.308 9.548 68.316 9.24 69.52 9.296V6.748C67.42 6.748 65.964 7.616 65.152 9.352V7ZM81.2476 7H77.5236V3.08L75.0876 3.808V7H72.3156V9.352H75.0876V16.94C75.0876 20.412 76.9916 21.56 81.2476 21V18.816C78.7556 18.928 77.5236 19.096 77.5236 16.94V9.352H81.2476V7ZM106.39 9.716H96.8696V1.4H94.2656V21H96.8696V12.18H106.39V21H108.966V1.4H106.39V9.716ZM126.124 19.236C127.552 17.808 128.28 16.072 128.28 14C128.28 11.928 127.552 10.192 126.124 8.764C124.696 7.336 122.932 6.636 120.888 6.636C118.844 6.636 117.08 7.336 115.652 8.764C114.224 10.192 113.524 11.928 113.524 14C113.524 16.072 114.224 17.808 115.652 19.236C117.08 20.664 118.844 21.364 120.888 21.364C122.932 21.364 124.696 20.664 126.124 19.236ZM120.888 18.984C119.516 18.984 118.34 18.508 117.388 17.556C116.436 16.604 115.96 15.428 115.96 14C115.96 12.572 116.436 11.396 117.388 10.444C118.34 9.492 119.516 9.016 120.888 9.016C122.288 9.016 123.464 9.492 124.416 10.444C125.368 11.396 125.844 12.572 125.844 14C125.844 15.428 125.368 16.604 124.416 17.556C123.464 18.508 122.288 18.984 120.888 18.984ZM147.672 6.636C145.712 6.636 144.256 7.42 143.276 9.016C142.408 7.42 141.036 6.636 139.16 6.636C137.34 6.636 135.94 7.392 134.988 8.876V7H132.552V21H134.988V13.216C134.988 10.388 136.528 8.96 138.572 8.96C140.392 8.96 141.54 10.22 141.54 12.376V21H143.976V13.216C143.976 10.332 145.32 8.96 147.42 8.96C149.296 8.96 150.5 10.22 150.5 12.376V21H152.936V12.292C152.936 8.82 150.808 6.636 147.672 6.636ZM171.154 15.12C171.21 14.756 171.238 14.392 171.238 14.028C171.238 11.984 170.594 10.248 169.278 8.82C167.99 7.364 166.31 6.636 164.266 6.636C162.11 6.636 160.346 7.336 158.974 8.736C157.602 10.136 156.93 11.9 156.93 14C156.93 16.128 157.63 17.892 159.002 19.292C160.402 20.664 162.222 21.364 164.434 21.364C167.178 21.364 169.222 20.3 170.594 18.2L168.522 17.024C167.682 18.396 166.338 19.068 164.49 19.068C161.83 19.068 159.898 17.612 159.422 15.12H171.154ZM164.266 8.932C166.506 8.932 168.354 10.332 168.774 12.992H159.422C159.842 10.528 161.662 8.932 164.266 8.932ZM184.09 21H186.694V1.4H184.09V21ZM199.018 6.636C196.974 6.636 195.462 7.42 194.482 9.016V7H192.046V21H194.482V13.58C194.482 10.444 196.106 8.96 198.542 8.96C200.698 8.96 202.014 10.276 202.014 12.544V21H204.45V12.404C204.45 8.848 202.294 6.636 199.018 6.636ZM211.351 10.78C211.351 9.576 212.471 8.904 213.843 8.904C215.327 8.904 216.335 9.492 216.839 10.696L218.883 9.548C217.987 7.728 216.111 6.636 213.843 6.636C212.415 6.636 211.239 7.028 210.287 7.812C209.363 8.596 208.887 9.604 208.887 10.808C208.887 13.776 211.743 14.504 213.955 15.092C215.495 15.456 216.727 16.072 216.727 17.164C216.727 18.48 215.551 19.068 213.955 19.068C212.247 19.068 210.931 18.228 210.483 16.884L208.383 18.088C209.195 20.076 211.239 21.364 213.955 21.364C215.495 21.364 216.727 20.972 217.707 20.216C218.687 19.46 219.191 18.424 219.191 17.164C219.219 14.168 216.307 13.356 214.123 12.88C212.583 12.46 211.351 11.872 211.351 10.78ZM230.544 7H226.82V3.08L224.384 3.808V7H221.612V9.352H224.384V16.94C224.384 20.412 226.288 21.56 230.544 21V18.816C228.052 18.928 226.82 19.096 226.82 16.94V9.352H230.544V7ZM245.71 9.408C244.506 7.56 242.742 6.636 240.418 6.636C238.458 6.636 236.778 7.364 235.406 8.792C234.034 10.22 233.334 11.956 233.334 14C233.334 16.044 234.034 17.808 235.406 19.236C236.778 20.664 238.458 21.364 240.418 21.364C242.742 21.364 244.506 20.44 245.71 18.592V21H248.146V7H245.71V9.408ZM240.726 19.012C239.326 19.012 238.15 18.536 237.198 17.584C236.246 16.604 235.77 15.428 235.77 14C235.77 12.572 236.246 11.396 237.198 10.444C238.15 9.464 239.326 8.988 240.726 8.988C242.154 8.988 243.33 9.464 244.282 10.444C245.234 11.396 245.71 12.572 245.71 14C245.71 15.428 245.234 16.604 244.282 17.584C243.33 18.536 242.154 19.012 240.726 19.012ZM255.672 21V0.559999H253.236V21H255.672ZM263.225 21V0.559999H260.789V21H263.225ZM279.933 9.408C278.729 7.56 276.965 6.636 274.641 6.636C272.681 6.636 271.001 7.364 269.629 8.792C268.257 10.22 267.557 11.956 267.557 14C267.557 16.044 268.257 17.808 269.629 19.236C271.001 20.664 272.681 21.364 274.641 21.364C276.965 21.364 278.729 20.44 279.933 18.592V21H282.369V7H279.933V9.408ZM274.949 19.012C273.549 19.012 272.373 18.536 271.421 17.584C270.469 16.604 269.993 15.428 269.993 14C269.993 12.572 270.469 11.396 271.421 10.444C272.373 9.464 273.549 8.988 274.949 8.988C276.377 8.988 277.553 9.464 278.505 10.444C279.457 11.396 279.933 12.572 279.933 14C279.933 15.428 279.457 16.604 278.505 17.584C277.553 18.536 276.377 19.012 274.949 19.012ZM295.076 7H291.352V3.08L288.916 3.808V7H286.144V9.352H288.916V16.94C288.916 20.412 290.82 21.56 295.076 21V18.816C292.584 18.928 291.352 19.096 291.352 16.94V9.352H295.076V7ZM300.592 4.452C301.488 4.452 302.216 3.724 302.216 2.828C302.216 1.932 301.488 1.176 300.592 1.176C299.668 1.176 298.94 1.932 298.94 2.828C298.94 3.724 299.668 4.452 300.592 4.452ZM301.796 21V7H299.36V21H301.796ZM318.728 19.236C320.156 17.808 320.884 16.072 320.884 14C320.884 11.928 320.156 10.192 318.728 8.764C317.3 7.336 315.536 6.636 313.492 6.636C311.448 6.636 309.684 7.336 308.256 8.764C306.828 10.192 306.128 11.928 306.128 14C306.128 16.072 306.828 17.808 308.256 19.236C309.684 20.664 311.448 21.364 313.492 21.364C315.536 21.364 317.3 20.664 318.728 19.236ZM313.492 18.984C312.12 18.984 310.944 18.508 309.992 17.556C309.04 16.604 308.564 15.428 308.564 14C308.564 12.572 309.04 11.396 309.992 10.444C310.944 9.492 312.12 9.016 313.492 9.016C314.892 9.016 316.068 9.492 317.02 10.444C317.972 11.396 318.448 12.572 318.448 14C318.448 15.428 317.972 16.604 317.02 17.556C316.068 18.508 314.892 18.984 313.492 18.984ZM332.128 6.636C330.084 6.636 328.572 7.42 327.592 9.016V7H325.156V21H327.592V13.58C327.592 10.444 329.216 8.96 331.652 8.96C333.808 8.96 335.124 10.276 335.124 12.544V21H337.56V12.404C337.56 8.848 335.404 6.636 332.128 6.636Z" fill="white"/>
</svg>
