<svg width="357" height="127" viewBox="0 0 357 127" fill="none" xmlns="http://www.w3.org/2000/svg">
<path d="M12.636 27L18 8.604L23.328 27H28.116L35.244 1.8H30.888L25.596 21.492L19.908 1.8H16.092L10.368 21.492L5.076 1.8H0.72L7.848 27H12.636ZM48.7977 8.532C46.2417 8.532 44.4057 9.468 43.2177 11.304V1.8H39.3297V27H43.2177V17.352C43.2177 13.86 45.0537 12.168 47.7897 12.168C50.2737 12.168 51.8217 13.644 51.8217 16.344V27H55.7097V15.948C55.7097 11.34 52.9377 8.532 48.7977 8.532ZM75.9521 11.556C74.4761 9.54 72.3881 8.532 69.6521 8.532C67.1681 8.532 65.0801 9.432 63.3161 11.268C61.5521 13.104 60.6881 15.336 60.6881 18C60.6881 20.628 61.5521 22.896 63.3161 24.732C65.0801 26.568 67.1681 27.468 69.6521 27.468C72.3881 27.468 74.4761 26.46 75.9521 24.408V27H79.8401V9H75.9521V11.556ZM66.1961 22.14C65.1161 21.024 64.5761 19.656 64.5761 18C64.5761 16.344 65.1161 14.976 66.1961 13.896C67.2761 12.78 68.6441 12.24 70.2641 12.24C71.8841 12.24 73.2521 12.78 74.3321 13.896C75.4121 14.976 75.9521 16.344 75.9521 18C75.9521 19.656 75.4121 21.024 74.3321 22.14C73.2521 23.22 71.8841 23.76 70.2641 23.76C68.6441 23.76 67.2761 23.22 66.1961 22.14ZM96.2159 9H91.7519V3.96L87.8639 5.112V9H84.5519V12.744H87.8639V21.384C87.8639 26.1 90.2759 27.72 96.2159 27V23.508C93.2639 23.652 91.7519 23.688 91.7519 21.384V12.744H96.2159V9ZM129.726 21.42L125.982 9H122.274L118.494 21.42L115.002 9H110.898L116.55 27H120.366L124.146 14.868L127.89 27H131.706L137.358 9H133.254L129.726 21.42ZM158.706 19.656C158.814 18.972 158.85 18.432 158.85 18.036C158.85 15.408 157.986 13.14 156.294 11.304C154.602 9.468 152.442 8.532 149.814 8.532C147.042 8.532 144.738 9.432 142.974 11.268C141.21 13.068 140.31 15.3 140.31 18C140.31 20.736 141.21 23.004 143.01 24.804C144.81 26.568 147.186 27.468 150.102 27.468C153.594 27.468 156.222 26.172 157.986 23.544L154.782 21.672C153.738 23.148 152.19 23.904 150.138 23.904C147.15 23.904 144.954 22.392 144.378 19.656H158.706ZM144.342 16.488C144.882 13.752 146.898 12.06 149.778 12.06C152.334 12.06 154.386 13.572 154.926 16.488H144.342ZM189.127 11.556C187.651 9.54 185.563 8.532 182.827 8.532C180.343 8.532 178.255 9.432 176.491 11.268C174.727 13.104 173.863 15.336 173.863 18C173.863 20.628 174.727 22.896 176.491 24.732C178.255 26.568 180.343 27.468 182.827 27.468C185.563 27.468 187.651 26.46 189.127 24.408V27H193.015V1.8H189.127V11.556ZM179.371 22.14C178.291 21.024 177.751 19.656 177.751 18C177.751 16.344 178.291 14.976 179.371 13.896C180.451 12.78 181.819 12.24 183.439 12.24C185.059 12.24 186.427 12.78 187.507 13.896C188.587 14.976 189.127 16.344 189.127 18C189.127 19.656 188.587 21.024 187.507 22.14C186.427 23.22 185.059 23.76 183.439 23.76C181.819 23.76 180.451 23.22 179.371 22.14ZM207.843 27.468C210.507 27.468 212.739 26.568 214.575 24.732C216.411 22.896 217.347 20.664 217.347 18C217.347 15.336 216.411 13.104 214.575 11.268C212.739 9.432 210.507 8.532 207.843 8.532C205.215 8.532 202.947 9.432 201.111 11.268C199.275 13.104 198.339 15.336 198.339 18C198.339 20.664 199.275 22.896 201.111 24.732C202.947 26.568 205.215 27.468 207.843 27.468ZM203.847 22.068C202.767 20.988 202.227 19.62 202.227 18C202.227 16.38 202.767 15.012 203.847 13.932C204.927 12.852 206.259 12.312 207.843 12.312C209.427 12.312 210.759 12.852 211.839 13.932C212.919 15.012 213.459 16.38 213.459 18C213.459 19.62 212.919 20.988 211.839 22.068C210.759 23.148 209.427 23.688 207.843 23.688C206.259 23.688 204.927 23.148 203.847 22.068ZM243.507 9H239.043V3.96L235.155 5.112V9H231.843V12.744H235.155V21.384C235.155 26.1 237.567 27.72 243.507 27V23.508C240.555 23.652 239.043 23.688 239.043 21.384V12.744H243.507V9ZM256.591 27.468C259.255 27.468 261.487 26.568 263.323 24.732C265.159 22.896 266.095 20.664 266.095 18C266.095 15.336 265.159 13.104 263.323 11.268C261.487 9.432 259.255 8.532 256.591 8.532C253.963 8.532 251.695 9.432 249.859 11.268C248.023 13.104 247.087 15.336 247.087 18C247.087 20.664 248.023 22.896 249.859 24.732C251.695 26.568 253.963 27.468 256.591 27.468ZM252.595 22.068C251.515 20.988 250.975 19.62 250.975 18C250.975 16.38 251.515 15.012 252.595 13.932C253.675 12.852 255.007 12.312 256.591 12.312C258.175 12.312 259.507 12.852 260.587 13.932C261.667 15.012 262.207 16.38 262.207 18C262.207 19.62 261.667 20.988 260.587 22.068C259.507 23.148 258.175 23.688 256.591 23.688C255.007 23.688 253.675 23.148 252.595 22.068ZM291.678 8.532C289.122 8.532 287.286 9.468 286.098 11.304V1.8H282.21V27H286.098V17.352C286.098 13.86 287.934 12.168 290.67 12.168C293.154 12.168 294.702 13.644 294.702 16.344V27H298.59V15.948C298.59 11.34 295.818 8.532 291.678 8.532ZM321.965 19.656C322.073 18.972 322.109 18.432 322.109 18.036C322.109 15.408 321.245 13.14 319.553 11.304C317.861 9.468 315.701 8.532 313.073 8.532C310.301 8.532 307.997 9.432 306.233 11.268C304.469 13.068 303.569 15.3 303.569 18C303.569 20.736 304.469 23.004 306.269 24.804C308.069 26.568 310.445 27.468 313.361 27.468C316.853 27.468 319.481 26.172 321.245 23.544L318.041 21.672C316.997 23.148 315.449 23.904 313.397 23.904C310.409 23.904 308.213 22.392 307.637 19.656H321.965ZM307.601 16.488C308.141 13.752 310.157 12.06 313.037 12.06C315.593 12.06 317.645 13.572 318.185 16.488H307.601ZM331.218 27V0.719999H327.33V27H331.218ZM347.72 8.532C344.984 8.532 342.896 9.54 341.42 11.592V9H337.532V34.2H341.42V24.444C342.896 26.46 344.984 27.468 347.72 27.468C350.204 27.468 352.292 26.568 354.056 24.732C355.82 22.896 356.684 20.664 356.684 18C356.684 15.372 355.82 13.14 354.056 11.304C352.292 9.468 350.204 8.532 347.72 8.532ZM343.04 22.14C341.96 21.024 341.42 19.656 341.42 18C341.42 16.344 341.96 14.976 343.04 13.896C344.12 12.78 345.488 12.24 347.108 12.24C348.728 12.24 350.096 12.78 351.176 13.896C352.256 14.976 352.796 16.344 352.796 18C352.796 19.656 352.256 21.024 351.176 22.14C350.096 23.22 348.728 23.76 347.108 23.76C345.488 23.76 344.12 23.22 343.04 22.14ZM10.764 73.468C13.428 73.468 15.66 72.568 17.496 70.732C19.332 68.896 20.268 66.664 20.268 64C20.268 61.336 19.332 59.104 17.496 57.268C15.66 55.432 13.428 54.532 10.764 54.532C8.136 54.532 5.868 55.432 4.032 57.268C2.196 59.104 1.26 61.336 1.26 64C1.26 66.664 2.196 68.896 4.032 70.732C5.868 72.568 8.136 73.468 10.764 73.468ZM6.768 68.068C5.688 66.988 5.148 65.62 5.148 64C5.148 62.38 5.688 61.012 6.768 59.932C7.848 58.852 9.18 58.312 10.764 58.312C12.348 58.312 13.68 58.852 14.76 59.932C15.84 61.012 16.38 62.38 16.38 64C16.38 65.62 15.84 66.988 14.76 68.068C13.68 69.148 12.348 69.688 10.764 69.688C9.18 69.688 7.848 69.148 6.768 68.068ZM37.7156 64.648C37.7156 68.14 35.8796 69.832 33.1436 69.832C30.6596 69.832 29.1116 68.356 29.1116 65.656V55H25.2236V66.052C25.2236 70.66 27.9956 73.468 32.1356 73.468C34.6916 73.468 36.5276 72.532 37.7156 70.696V73H41.6036V55H37.7156V64.648ZM51.838 55H47.95V73H51.838V63.928C51.838 62.092 52.378 60.76 53.494 59.968C54.61 59.14 55.906 58.78 57.382 58.888V54.676C54.682 54.676 52.81 55.792 51.838 58.024V55ZM81.3507 73.468C84.8427 73.468 87.9027 71.668 89.4507 68.788L86.1027 66.88C85.2387 68.572 83.4387 69.652 81.3147 69.652C79.7307 69.652 78.3987 69.112 77.3187 68.032C76.2747 66.952 75.7347 65.62 75.7347 64C75.7347 62.38 76.2747 61.048 77.3187 59.968C78.3987 58.888 79.7307 58.348 81.3147 58.348C83.4747 58.348 85.2027 59.392 86.0307 61.12L89.3787 59.176C87.9387 56.332 84.8427 54.532 81.3507 54.532C78.6507 54.532 76.3827 55.432 74.5467 57.268C72.7467 59.068 71.8467 61.3 71.8467 64C71.8467 66.664 72.7467 68.896 74.5467 70.732C76.3827 72.568 78.6507 73.468 81.3507 73.468ZM97.949 73V46.72H94.061V73H97.949ZM107.935 51.58C108.943 50.572 108.943 49.06 107.971 48.088C106.999 47.08 105.415 47.08 104.443 48.088C103.471 49.06 103.471 50.572 104.443 51.58C105.451 52.552 106.963 52.552 107.935 51.58ZM108.151 73V55H104.263V73H108.151ZM131.854 65.656C131.962 64.972 131.998 64.432 131.998 64.036C131.998 61.408 131.134 59.14 129.442 57.304C127.75 55.468 125.59 54.532 122.962 54.532C120.19 54.532 117.886 55.432 116.122 57.268C114.358 59.068 113.458 61.3 113.458 64C113.458 66.736 114.358 69.004 116.158 70.804C117.958 72.568 120.334 73.468 123.25 73.468C126.742 73.468 129.37 72.172 131.134 69.544L127.93 67.672C126.886 69.148 125.338 69.904 123.286 69.904C120.298 69.904 118.102 68.392 117.526 65.656H131.854ZM117.49 62.488C118.03 59.752 120.046 58.06 122.926 58.06C125.482 58.06 127.534 59.572 128.074 62.488H117.49ZM146.687 54.532C144.131 54.532 142.295 55.468 141.107 57.304V55H137.219V73H141.107V63.352C141.107 59.86 142.943 58.168 145.679 58.168C148.163 58.168 149.711 59.644 149.711 62.344V73H153.599V61.948C153.599 57.34 150.827 54.532 146.687 54.532ZM169.629 55H165.165V49.96L161.277 51.112V55H157.965V58.744H161.277V67.384C161.277 72.1 163.689 73.72 169.629 73V69.508C166.677 69.652 165.165 69.688 165.165 67.384V58.744H169.629V55ZM200.259 57.664C198.783 55.576 196.695 54.532 193.995 54.532C191.439 54.532 189.315 55.432 187.551 57.268C185.787 59.068 184.923 61.264 184.923 63.82C184.923 66.376 185.787 68.572 187.551 70.408C189.315 72.208 191.439 73.108 193.995 73.108C196.695 73.108 198.783 72.064 200.259 69.976V72.172C200.259 75.304 198.243 77.14 194.895 77.14C192.339 77.14 190.575 76.204 189.639 74.368L186.291 76.312C187.839 79.228 190.683 80.668 194.823 80.668C197.379 80.668 199.575 79.948 201.375 78.472C203.175 76.996 204.075 74.908 204.075 72.172V55H200.259V57.664ZM190.431 67.852C189.351 66.772 188.811 65.44 188.811 63.82C188.811 62.2 189.351 60.868 190.431 59.788C191.547 58.708 192.915 58.168 194.535 58.168C196.155 58.168 197.523 58.708 198.603 59.788C199.719 60.868 200.259 62.2 200.259 63.82C200.259 65.44 199.719 66.772 198.603 67.852C197.523 68.932 196.155 69.472 194.535 69.472C192.915 69.472 191.547 68.932 190.431 67.852ZM214.295 55H210.407V73H214.295V63.928C214.295 62.092 214.835 60.76 215.951 59.968C217.067 59.14 218.363 58.78 219.839 58.888V54.676C217.139 54.676 215.267 55.792 214.295 58.024V55ZM232.164 73.468C234.828 73.468 237.06 72.568 238.896 70.732C240.732 68.896 241.668 66.664 241.668 64C241.668 61.336 240.732 59.104 238.896 57.268C237.06 55.432 234.828 54.532 232.164 54.532C229.536 54.532 227.268 55.432 225.432 57.268C223.596 59.104 222.66 61.336 222.66 64C222.66 66.664 223.596 68.896 225.432 70.732C227.268 72.568 229.536 73.468 232.164 73.468ZM228.168 68.068C227.088 66.988 226.548 65.62 226.548 64C226.548 62.38 227.088 61.012 228.168 59.932C229.248 58.852 230.58 58.312 232.164 58.312C233.748 58.312 235.08 58.852 236.16 59.932C237.24 61.012 237.78 62.38 237.78 64C237.78 65.62 237.24 66.988 236.16 68.068C235.08 69.148 233.748 69.688 232.164 69.688C230.58 69.688 229.248 69.148 228.168 68.068ZM263.488 67.42L259.744 55H256.036L252.256 67.42L248.764 55H244.66L250.312 73H254.128L257.908 60.868L261.652 73H265.468L271.12 55H267.016L263.488 67.42ZM290.256 51.58C291.264 50.572 291.264 49.06 290.292 48.088C289.32 47.08 287.736 47.08 286.764 48.088C285.792 49.06 285.792 50.572 286.764 51.58C287.772 52.552 289.284 52.552 290.256 51.58ZM290.472 73V55H286.584V73H290.472ZM306.254 54.532C303.698 54.532 301.862 55.468 300.674 57.304V55H296.786V73H300.674V63.352C300.674 59.86 302.51 58.168 305.246 58.168C307.73 58.168 309.278 59.644 309.278 62.344V73H313.166V61.948C313.166 57.34 310.394 54.532 306.254 54.532ZM16.524 103.556C15.048 101.54 12.96 100.532 10.224 100.532C7.74 100.532 5.652 101.432 3.888 103.268C2.124 105.104 1.26 107.336 1.26 110C1.26 112.628 2.124 114.896 3.888 116.732C5.652 118.568 7.74 119.468 10.224 119.468C12.96 119.468 15.048 118.46 16.524 116.408V119H20.412V93.8H16.524V103.556ZM6.768 114.14C5.688 113.024 5.148 111.656 5.148 110C5.148 108.344 5.688 106.976 6.768 105.896C7.848 104.78 9.216 104.24 10.836 104.24C12.456 104.24 13.824 104.78 14.904 105.896C15.984 106.976 16.524 108.344 16.524 110C16.524 111.656 15.984 113.024 14.904 114.14C13.824 115.22 12.456 115.76 10.836 115.76C9.216 115.76 7.848 115.22 6.768 114.14ZM30.4158 97.58C31.4238 96.572 31.4238 95.06 30.4518 94.088C29.4798 93.08 27.8958 93.08 26.9238 94.088C25.9518 95.06 25.9518 96.572 26.9238 97.58C27.9318 98.552 29.4438 98.552 30.4158 97.58ZM30.6318 119V101H26.7438V119H30.6318ZM51.2741 103.664C49.7981 101.576 47.7101 100.532 45.0101 100.532C42.4541 100.532 40.3301 101.432 38.5661 103.268C36.8021 105.068 35.9381 107.264 35.9381 109.82C35.9381 112.376 36.8021 114.572 38.5661 116.408C40.3301 118.208 42.4541 119.108 45.0101 119.108C47.7101 119.108 49.7981 118.064 51.2741 115.976V118.172C51.2741 121.304 49.2581 123.14 45.9101 123.14C43.3541 123.14 41.5901 122.204 40.6541 120.368L37.3061 122.312C38.8541 125.228 41.6981 126.668 45.8381 126.668C48.3941 126.668 50.5901 125.948 52.3901 124.472C54.1901 122.996 55.0901 120.908 55.0901 118.172V101H51.2741V103.664ZM41.4461 113.852C40.3661 112.772 39.8261 111.44 39.8261 109.82C39.8261 108.2 40.3661 106.868 41.4461 105.788C42.5621 104.708 43.9301 104.168 45.5501 104.168C47.1701 104.168 48.5381 104.708 49.6181 105.788C50.7341 106.868 51.2741 108.2 51.2741 109.82C51.2741 111.44 50.7341 112.772 49.6181 113.852C48.5381 114.932 47.1701 115.472 45.5501 115.472C43.9301 115.472 42.5621 114.932 41.4461 113.852ZM65.0939 97.58C66.1019 96.572 66.1019 95.06 65.1299 94.088C64.1579 93.08 62.5739 93.08 61.6019 94.088C60.6299 95.06 60.6299 96.572 61.6019 97.58C62.6099 98.552 64.1219 98.552 65.0939 97.58ZM65.3099 119V101H61.4219V119H65.3099ZM81.6682 101H77.2042V95.96L73.3162 97.112V101H70.0042V104.744H73.3162V113.384C73.3162 118.1 75.7282 119.72 81.6682 119V115.508C78.7162 115.652 77.2042 115.688 77.2042 113.384V104.744H81.6682V101ZM100.512 103.556C99.0363 101.54 96.9483 100.532 94.2123 100.532C91.7283 100.532 89.6403 101.432 87.8763 103.268C86.1123 105.104 85.2483 107.336 85.2483 110C85.2483 112.628 86.1123 114.896 87.8763 116.732C89.6403 118.568 91.7283 119.468 94.2123 119.468C96.9483 119.468 99.0363 118.46 100.512 116.408V119H104.4V101H100.512V103.556ZM90.7563 114.14C89.6763 113.024 89.1363 111.656 89.1363 110C89.1363 108.344 89.6763 106.976 90.7563 105.896C91.8363 104.78 93.2043 104.24 94.8243 104.24C96.4443 104.24 97.8123 104.78 98.8923 105.896C99.9723 106.976 100.512 108.344 100.512 110C100.512 111.656 99.9723 113.024 98.8923 114.14C97.8123 115.22 96.4443 115.76 94.8243 115.76C93.2043 115.76 91.8363 115.22 90.7563 114.14ZM114.62 119V92.72H110.732V119H114.62ZM149.122 111.656C149.23 110.972 149.266 110.432 149.266 110.036C149.266 107.408 148.402 105.14 146.71 103.304C145.018 101.468 142.858 100.532 140.23 100.532C137.458 100.532 135.154 101.432 133.39 103.268C131.626 105.068 130.726 107.3 130.726 110C130.726 112.736 131.626 115.004 133.426 116.804C135.226 118.568 137.602 119.468 140.518 119.468C144.01 119.468 146.638 118.172 148.402 115.544L145.198 113.672C144.154 115.148 142.606 115.904 140.554 115.904C137.566 115.904 135.37 114.392 134.794 111.656H149.122ZM134.758 108.488C135.298 105.752 137.314 104.06 140.194 104.06C142.75 104.06 144.802 105.572 145.342 108.488H134.758ZM158.376 101H154.488V119H158.376V109.928C158.376 108.092 158.916 106.76 160.032 105.968C161.148 105.14 162.444 104.78 163.92 104.888V100.676C161.22 100.676 159.348 101.792 158.376 104.024V101ZM182.004 103.556C180.528 101.54 178.44 100.532 175.704 100.532C173.22 100.532 171.132 101.432 169.368 103.268C167.604 105.104 166.74 107.336 166.74 110C166.74 112.628 167.604 114.896 169.368 116.732C171.132 118.568 173.22 119.468 175.704 119.468C178.44 119.468 180.528 118.46 182.004 116.408V119H185.892V101H182.004V103.556ZM172.248 114.14C171.168 113.024 170.628 111.656 170.628 110C170.628 108.344 171.168 106.976 172.248 105.896C173.328 104.78 174.696 104.24 176.316 104.24C177.936 104.24 179.304 104.78 180.384 105.896C181.464 106.976 182.004 108.344 182.004 110C182.004 111.656 181.464 113.024 180.384 114.14C179.304 115.22 177.936 115.76 176.316 115.76C174.696 115.76 173.328 115.22 172.248 114.14ZM193.304 114.68L191.864 124.04H195.104L197.624 114.68H193.304Z" fill="#316099"/>
</svg>
